<svg xmlns="http://www.w3.org/2000/svg" xmlns:lucid="lucid" width="177" height="303"><g lucid:page-tab-id="0_0"><path d="M109.75 85.75c0 10.9-8.84 19.75-19.75 19.75-10.9 0-19.75-8.84-19.75-19.75C70.25 74.85 79.1 66 90 66c10.9 0 19.75 8.84 19.75 19.75z" stroke="#333" fill="#fff"/><path d="M90 105.5v50.3a17.25 17.25 0 0 0 2.67 9.22L130 224m-40-63.2L50 224m0-98.75h80" stroke="#333" fill="none"/><path d="M50 71a5 5 0 0 1 5-5h70a5 5 0 0 1 5 5v170a5 5 0 0 1-5 5H55a5 5 0 0 1-5-5z" fill="none"/></g></svg>