<svg xmlns="http://www.w3.org/2000/svg" xmlns:xlink="http://www.w3.org/1999/xlink" xmlns:lucid="lucid" width="1058" height="1345"><g transform="translate(1713 1280)" lucid:page-tab-id="0_0"><path d="M-2000-1500h1500V500h-1500z" fill="#fff"/><path d="M-1142.8-1223.52c0 9.1-7.7 16.48-17.2 16.48s-17.2-7.38-17.2-16.48c0-9.1 7.7-16.48 17.2-16.48s17.2 7.38 17.2 16.48z" stroke="#000"/><path d="M-1228.48-1152.32c-6.36 0-11.52 5.16-11.52 11.52v34.56c0 6.36 5.16 11.5 11.52 11.5h136.96c6.36 0 11.52-5.14 11.52-11.5v-34.56c0-6.36-5.16-11.52-11.52-11.52z" stroke="#000" stroke-opacity="0" fill="#0c7c7d"/><use xlink:href="#a" transform="matrix(1,0,0,1,-1232,-1144.3148721299287) translate(15.701932665383588 17.63036950829339)"/><use xlink:href="#b" transform="matrix(1,0,0,1,-1232,-1144.3148721299287) translate(83.71526390588281 17.63036950829339)"/><use xlink:href="#c" transform="matrix(1,0,0,1,-1232,-1144.3148721299287) translate(53.19418772138639 34.53309088167189)"/><path d="M-1228.48-940c-6.36 0-11.52 5.16-11.52 11.52v34.55c0 6.36 5.16 11.52 11.52 11.52h136.96c6.36 0 11.52-5.17 11.52-11.53v-34.55c0-6.36-5.16-11.52-11.52-11.52z" stroke="#000" stroke-opacity="0" fill="#0c7c7d"/><use xlink:href="#d" transform="matrix(1,0,0,1,-1232,-932) translate(25.54821123780969 26.08173019498264)"/><use xlink:href="#e" transform="matrix(1,0,0,1,-1232,-932) translate(81.9724691880062 26.08173019498264)"/><path d="M-1159.53-956.38h-.94v-24.1h.94zm0-41h-.94v-15.35h.94z" stroke="#666" stroke-width=".05" fill="#666"/><path d="M-1160-1013.23l.47-.03v.55h-.94v-.56z" fill="#666"/><path stroke="#666" stroke-width=".05" fill="#666"/><path d="M-1160-941.62l-4.63-14.26h9.27z" fill="#666"/><path d="M-1160-940.08l-5.3-16.28h10.6zm-3.98-15.33l3.98 12.25 3.98-12.26z" stroke="#666" stroke-width=".05" fill="#666"/><use xlink:href="#f" transform="matrix(1,0,0,1,-1198.0140703042125,-997.376138317934) translate(0 13.53309088167189)"/><use xlink:href="#g" transform="matrix(1,0,0,1,-1198.0140703042125,-997.376138317934) translate(33.83954831853541 13.53309088167189)"/><path d="M-1160-881.9v54.12" stroke="#666" fill="none"/><path d="M-1159.53-881.9h-.94v-.5h.94z" stroke="#666" stroke-width=".05" fill="#666"/><path d="M-1160-813.02l-4.63-14.26h9.27z" stroke="#666" fill="#666"/><path d="M-1568.48-445.63c-6.36 0-11.52 5.15-11.52 11.5v34.57c0 6.36 5.16 11.5 11.52 11.5h136.96c6.36 0 11.52-5.14 11.52-11.5v-34.56c0-6.36-5.16-11.5-11.52-11.5z" stroke="#000" stroke-opacity="0" fill="#0c7c7d"/><use xlink:href="#h" transform="matrix(1,0,0,1,-1572,-437.63449901684197) translate(16.9843021642517 26.08173019498264)"/><use xlink:href="#i" transform="matrix(1,0,0,1,-1572,-437.63449901684197) translate(74.52722286877997 26.08173019498264)"/><path d="M-1138.64-518.77c-6.36 0-11.5 5.16-11.5 11.52v34.55c0 6.36 5.14 11.52 11.5 11.52h136.97c6.36 0 11.52-5.16 11.52-11.52v-34.55c0-6.36-5.16-11.52-11.52-11.52z" stroke="#000" stroke-opacity="0" fill="#0c7c7d"/><use xlink:href="#j" transform="matrix(1,0,0,1,-1142.1532958189468,-510.7707898086186) translate(18.01429043195958 26.08173019498264)"/><use xlink:href="#k" transform="matrix(1,0,0,1,-1142.1532958189468,-510.7707898086186) translate(68.65424340853826 26.08173019498264)"/><path d="M-1408.48-175.5c-6.36 0-11.52 5.15-11.52 11.5v34.56c0 6.37 5.16 11.52 11.52 11.52h136.96c6.37 0 11.52-5.15 11.52-11.52V-164c0-6.35-5.15-11.5-11.52-11.5z" stroke="#000" stroke-opacity="0" fill="#0c7c7d"/><use xlink:href="#l" transform="matrix(1,0,0,1,-1411.9985070721282,-167.50654017376743) translate(32.23290330637746 17.63036950829339)"/><use xlink:href="#m" transform="matrix(1,0,0,1,-1411.9985070721282,-167.50654017376743) translate(38.59018188587252 34.53309088167189)"/><path d="M-1163.48-1056.4a4.84 4.84 0 0 1 6.96 0l15.74 16.25a5.16 5.16 0 0 1 0 7.2l-15.74 16.25a4.84 4.84 0 0 1-6.96 0l-15.74-16.26a5.16 5.16 0 0 1 0-7.2z" stroke="#0c7c7d" stroke-width="4" fill="#fff"/><path d="M-1160-1206.04v37.34" stroke="#666" fill="none"/><path d="M-1160-1206.54l.47-.06v.58h-.94v-.58z" stroke="#666" stroke-width=".05" fill="#666"/><path d="M-1160-1153.93l-4.63-14.27h9.27z" stroke="#666" fill="#666"/><path d="M-948.48-1060c-6.36 0-11.52 5.16-11.52 11.52v34.55c0 6.36 5.16 11.52 11.52 11.52h136.96c6.36 0 11.52-5.17 11.52-11.53v-34.55c0-6.36-5.16-11.52-11.52-11.52z" stroke="#000" stroke-opacity="0" fill="#0c7c7d"/><use xlink:href="#d" transform="matrix(1,0,0,1,-952,-1052) translate(14.934557300369434 26.08173019498264)"/><use xlink:href="#n" transform="matrix(1,0,0,1,-952,-1052) translate(71.35881525056595 26.08173019498264)"/><path d="M-1160-1094.23v17.96" stroke="#5e5e5e" fill="none"/><path d="M-1159.53-1094.2h-.94v-.53h.94z" stroke="#5e5e5e" stroke-width=".05" fill="#5e5e5e"/><path d="M-1160-1061.5l-4.63-14.27h9.27z" stroke="#5e5e5e" fill="#5e5e5e"/><path d="M-976.38-1031.68v.95h-22.44v-.95zm-160.44-4.4v-.95h38.33v.95z" stroke="#5e5e5e" stroke-width=".05" fill="#5e5e5e"/><path d="M-1136.8-1036.08h-.55l.03-.48-.03-.47h.55z" fill="#5e5e5e"/><path stroke="#5e5e5e" stroke-width=".05" fill="#5e5e5e"/><path d="M-961.62-1031.2l-14.26 4.63v-9.27z" fill="#5e5e5e"/><path d="M-960.08-1031.2l-16.28 5.28v-10.57zm-15.33 3.98l12.25-4-12.26-3.97z" stroke="#5e5e5e" stroke-width=".05" fill="#5e5e5e"/><use xlink:href="#o" transform="matrix(1,0,0,1,-1098.494555550223,-1041.947426558649) translate(0 12.916666666666668)"/><use xlink:href="#p" transform="matrix(1,0,0,1,-1098.494555550223,-1041.947426558649) translate(31.972656250000004 12.916666666666668)"/><use xlink:href="#q" transform="matrix(1,0,0,1,-1098.494555550223,-1041.947426558649) translate(59.40755208333334 12.916666666666668)"/><path d="M-765-1031.6l1 .23.94.4.87.53.78.65.66.8.53.85.4.94.23.98.08 1v108.03l-.08 1-.24 1-.4.94-.52.86-.66.77-.77.66-.86.54-.94.38-1 .24-.98.07h-297.64v-.95h297.6l.88-.07.85-.2.8-.33.75-.46.66-.56.57-.66.45-.74.33-.8.2-.84.07-.88v-107.97l-.06-.87-.2-.84-.34-.8-.45-.75-.56-.66-.65-.57-.74-.46-.8-.33-.84-.2-.88-.07h-33.48v-.95h33.52z" stroke="#666" stroke-width=".05" fill="#666"/><path d="M-799.5-1030.73h-.5v-.95h.5z" fill="#666"/><path stroke="#666" stroke-width=".05" fill="#666"/><path d="M-1064.12-906.57l-14.26-4.64 14.26-4.64z" fill="#666"/><path d="M-1063.64-905.92l-16.28-5.3 16.28-5.27zm-13.2-5.3l12.25 4v-7.97z" stroke="#666" stroke-width=".05" fill="#666"/><path d="M-1478.64-740c-6.36 0-11.5 5.16-11.5 11.52v34.55c0 6.36 5.14 11.52 11.5 11.52h136.97c6.36 0 11.52-5.17 11.52-11.53v-34.55c0-6.36-5.16-11.52-11.52-11.52z" stroke="#000" stroke-opacity="0" fill="#0c7c7d"/><use xlink:href="#h" transform="matrix(1,0,0,1,-1482.1532958189468,-732) translate(22.652648193822934 26.08173019498264)"/><use xlink:href="#r" transform="matrix(1,0,0,1,-1482.1532958189468,-732) translate(80.1955688983512 26.08173019498264)"/><path d="M-1163.48-807.92a4.84 4.84 0 0 1 6.96 0l15.74 16.26a5.16 5.16 0 0 1 0 7.18l-15.74 16.26a4.84 4.84 0 0 1-6.96 0l-15.74-16.26a5.16 5.16 0 0 1 0-7.18z" stroke="#0c7c7d" stroke-width="4" fill="#fff"/><path d="M-1357.4-787.6h-51.17l-.88.08-.85.2-.8.33-.74.46-.65.57-.56.66-.45.72-.34.8-.2.85-.07.88v25.67h-.96v-25.7l.07-1 .25-1 .4-.93.52-.87.66-.78.77-.66.87-.54.94-.4 1-.22 1-.08h51.2zm174.22 0h-104.77v-.94h104.77z" stroke="#5e5e5e" stroke-width=".05" fill="#5e5e5e"/><path d="M-1182.68-788.07l.03.48h-.55v-.94h.55z" fill="#5e5e5e"/><path stroke="#5e5e5e" stroke-width=".05" fill="#5e5e5e"/><path d="M-1414.6-741.62l-4.62-14.26h9.27z" fill="#5e5e5e"/><path d="M-1414.6-740.08l-5.28-16.28h10.58zm-3.97-15.33l3.98 12.25 4-12.26z" stroke="#5e5e5e" stroke-width=".05" fill="#5e5e5e"/><use xlink:href="#s" transform="matrix(1,0,0,1,-1357.3941943724346,-796.1338122282453) translate(0 12.916666666666668)"/><use xlink:href="#t" transform="matrix(1,0,0,1,-1357.3941943724346,-796.1338122282453) translate(28.639322916666668 12.916666666666668)"/><path d="M-1460.3-505.63a1.67 1.67 0 0 1 1.66-1.67h96.97a1.67 1.67 0 0 1 1.67 1.67 1.67 1.67 0 0 1-1.67 1.66h-96.97a1.67 1.67 0 0 1-1.67-1.66z"/><path d="M-1500-460.13v-8.67a6 6 0 0 1 6-6h52.77a6 6 0 0 0 6-6v-22.67" stroke="#666" fill="none"/><path d="M-1500-446.63l-7.5-13h15z" stroke="#666" fill="#666"/><path d="M-1434.76-503.45h-.94v-.52h.94z" stroke="#666" stroke-width=".05" fill="#666"/><path d="M-1388.48-445.63c-6.36 0-11.52 5.15-11.52 11.5v34.57c0 6.36 5.16 11.5 11.52 11.5h136.96c6.36 0 11.52-5.14 11.52-11.5v-34.56c0-6.36-5.16-11.5-11.52-11.5z" stroke="#000" stroke-opacity="0" fill="#0c7c7d"/><use xlink:href="#u" transform="matrix(1,0,0,1,-1392,-437.63449901684197) translate(29.80799715293272 17.63036950829339)"/><use xlink:href="#m" transform="matrix(1,0,0,1,-1392,-437.63449901684197) translate(38.59018188587252 34.53309088167189)"/><path d="M-1320-462.02v-6.78a6 6 0 0 0-6-6h-53.08a6 6 0 0 1-6-6v-22.67" stroke="#666" fill="none"/><path d="M-1320-447.25l-4.63-14.27h9.27z" stroke="#666" fill="#666"/><path d="M-1384.6-503.45h-.95v-.52h.95z" stroke="#666" stroke-width=".05" fill="#666"/><path d="M-845-788.46l1 .23.94.4.87.52.78.65.66.78.53.86.4.93.23 1 .08.98v25.72h-.96v-25.67l-.06-.88-.2-.84-.34-.8-.45-.74-.56-.67-.65-.57-.74-.45-.8-.32-.84-.2-.88-.07h-85.57v-.94h85.62zm-291.82.87v-.94h139.17v.95z" stroke="#5e5e5e" stroke-width=".05" fill="#5e5e5e"/><path d="M-1136.8-787.6h-.55l.03-.47-.03-.47h.55z" fill="#5e5e5e"/><path stroke="#5e5e5e" stroke-width=".05" fill="#5e5e5e"/><path d="M-840-741.62l-4.63-14.26h9.26z" fill="#5e5e5e"/><path d="M-840-740.08l-5.3-16.28h10.6zm-3.98-15.33l3.98 12.25 3.98-12.26z" stroke="#5e5e5e" stroke-width=".05" fill="#5e5e5e"/><use xlink:href="#s" transform="matrix(1,0,0,1,-997.6542119361003,-796.1338122282453) translate(0 12.916666666666668)"/><use xlink:href="#v" transform="matrix(1,0,0,1,-997.6542119361003,-796.1338122282453) translate(28.639322916666668 12.916666666666668)"/><path d="M-908.48-740c-6.36 0-11.52 5.16-11.52 11.52v34.55c0 6.36 5.16 11.52 11.52 11.52h136.96c6.36 0 11.52-5.17 11.52-11.53v-34.55c0-6.36-5.16-11.52-11.52-11.52z" stroke="#000" stroke-opacity="0" fill="#0c7c7d"/><use xlink:href="#w" transform="matrix(1,0,0,1,-912,-732) translate(25.125302147757445 26.08173019498264)"/><use xlink:href="#x" transform="matrix(1,0,0,1,-912,-732) translate(84.76230495947989 26.08173019498264)"/><path d="M-908.48-645.35c-6.36 0-11.52 5.16-11.52 11.52v34.55c0 6.36 5.16 11.52 11.52 11.52h136.96c6.36 0 11.52-5.16 11.52-11.52v-34.55c0-6.36-5.16-11.52-11.52-11.52z" stroke="#000" stroke-opacity="0" fill="#0c7c7d"/><use xlink:href="#w" transform="matrix(1,0,0,1,-912,-637.350775662208) translate(0.8625983845987122 17.63036950829339)"/><use xlink:href="#y" transform="matrix(1,0,0,1,-912,-637.350775662208) translate(60.49960119632116 17.63036950829339)"/><use xlink:href="#z" transform="matrix(1,0,0,1,-912,-637.350775662208) translate(14.736744984054681 34.53309088167189)"/><use xlink:href="#A" transform="matrix(1,0,0,1,-912,-637.350775662208) translate(35.36379479563522 34.53309088167189)"/><path d="M-840-681.9v20.16" stroke="#666" fill="none"/><path d="M-839.52-681.9h-.96v-.5h.96z" stroke="#666" stroke-width=".05" fill="#666"/><path d="M-840-646.97l-4.63-14.26h9.26z" stroke="#666" fill="#666"/><path d="M-1413.63-636.4a4.84 4.84 0 0 1 6.96 0l15.74 16.25a5.16 5.16 0 0 1 0 7.18l-15.74 16.26a4.84 4.84 0 0 1-6.96 0l-15.75-16.26a5.16 5.16 0 0 1 0-7.2z" stroke="#0c7c7d" stroke-width="4" fill="#fff"/><path d="M-1410.15-681.4v23" stroke="#666" stroke-width="2" fill="none"/><path d="M-1409.18-681.4h-1.95v-1h1.95z" stroke="#666" stroke-width=".05" fill="#666"/><path d="M-1410.15-643.12l-4.64-14.27h9.28z" stroke="#666" stroke-width="2" fill="#666"/><path d="M-1409.68-523.7h-.95v-18.5h.95zm0-34.63h-.95v-34.4h.95z" stroke="#666" stroke-width=".05" fill="#666"/><path d="M-1410.15-593.23l.47-.03v.55h-.95v-.56z" fill="#666"/><path stroke="#666" stroke-width=".05" fill="#666"/><path d="M-1410.15-508.92l-4.64-14.27h9.28z" fill="#666"/><path d="M-1410.15-507.38l-5.3-16.28h10.6zm-3.98-15.33l3.98 12.24 3.98-12.25z" stroke="#666" stroke-width=".05" fill="#666"/><use xlink:href="#B" transform="matrix(1,0,0,1,-1438.8056395689468,-558.3302742105199) translate(0 12.916666666666668)"/><path d="M-1297.93-616.08h-89.04v-.95h89.04zm131.4 0h-73.16v-.95h73.16z" stroke="#666" stroke-width=".05" fill="#666"/><path d="M-1386.95-616.08h-.56l.03-.48-.04-.47h.55z" fill="#666"/><path stroke="#666" stroke-width=".05" fill="#666"/><path d="M-1151.77-616.56l-14.27 4.64v-9.27z" fill="#666"/><path d="M-1150.23-616.56l-16.28 5.3v-10.6zm-15.33 3.98l12.25-3.98-12.26-3.98z" stroke="#666" stroke-width=".05" fill="#666"/><use xlink:href="#C" transform="matrix(1,0,0,1,-1297.9317055358365,-624.6228143897531) translate(0 12.916666666666668)"/><path d="M-1138.64-645.35c-6.36 0-11.5 5.16-11.5 11.52v34.55c0 6.36 5.14 11.52 11.5 11.52h136.97c6.36 0 11.52-5.16 11.52-11.52v-34.55c0-6.36-5.16-11.52-11.52-11.52z" stroke="#000" stroke-opacity="0" fill="#0c7c7d"/><use xlink:href="#d" transform="matrix(1,0,0,1,-1142.1532958189468,-637.350775662208) translate(13.723809502235994 26.08173019498264)"/><use xlink:href="#D" transform="matrix(1,0,0,1,-1142.1532958189468,-637.350775662208) translate(70.14806745243251 26.08173019498264)"/><path d="M-1138.64-369.4c-6.36 0-11.5 5.17-11.5 11.53v34.56c0 6.35 5.14 11.5 11.5 11.5h136.97c6.36 0 11.52-5.15 11.52-11.5v-34.57c0-6.36-5.16-11.5-11.52-11.5z" stroke="#000" stroke-opacity="0" fill="#0c7c7d"/><use xlink:href="#E" transform="matrix(1,0,0,1,-1142.1532958189468,-361.38539490430935) translate(11.636548509397485 26.08173019498264)"/><use xlink:href="#F" transform="matrix(1,0,0,1,-1142.1532958189468,-361.38539490430935) translate(70.57779765684043 26.08173019498264)"/><path d="M-1208.5-175.5c-6.35 0-11.5 5.15-11.5 11.5v34.56c0 6.37 5.15 11.52 11.5 11.52h136.98c6.36 0 11.5-5.15 11.5-11.52V-164c0-6.35-5.14-11.5-11.5-11.5z" stroke="#000" stroke-opacity="0" fill="#0c7c7d"/><use xlink:href="#G" transform="matrix(1,0,0,1,-1212.0045143900106,-167.50654017376743) translate(44.49385636071477 17.63036950829339)"/><use xlink:href="#H" transform="matrix(1,0,0,1,-1212.0045143900106,-167.50654017376743) translate(29.153170174787306 34.53309088167189)"/><path d="M-1320-387.55v31.63a6 6 0 0 1-6 6h-53.08a6 6 0 0 0-6 6v15.74" stroke="#666" fill="none"/><path d="M-1319.53-387.53h-.94v-.52h.94z" stroke="#666" stroke-width=".05" fill="#666"/><path d="M-1385.08-313.42l-4.63-14.26h9.26z" stroke="#666" fill="#666"/><path d="M-1070.15-311.3v57" stroke="#666" fill="none"/><path d="M-1069.68-311.28h-.95v-.52h.95z" stroke="#666" stroke-width=".05" fill="#666"/><path d="M-1070.15-239.54l-4.64-14.26h9.28z" stroke="#666" fill="#666"/><path d="M-1410.15-307.96v53.66" stroke="#666" fill="none"/><path d="M-1409.68-307.95h-.95v-.5h.95z" stroke="#666" stroke-width=".05" fill="#666"/><path d="M-1410.15-239.54l-4.64-14.26h9.28z" stroke="#666" fill="#666"/><path d="M-1340-191.9v-42.18" stroke="#666" fill="none"/><path d="M-1340-177.13l-4.63-14.26h9.27z" stroke="#666" fill="#666"/><path d="M-1339.52-234.07h-.95v-.5h.95z" stroke="#666" stroke-width=".05" fill="#666"/><path d="M-1140-191.9v-42.18" stroke="#666" fill="none"/><path d="M-1140-177.13l-4.64-14.26h9.27z" stroke="#666" fill="#666"/><path d="M-1139.53-234.07h-.95v-.5h.95z" stroke="#666" stroke-width=".05" fill="#666"/><path d="M-1070.15-587.26v52.1" stroke="#666" fill="none"/><path d="M-1069.68-587.25h-.95v-.5h.95z" stroke="#666" stroke-width=".05" fill="#666"/><path d="M-1070.15-520.4l-4.64-14.25h9.28z" stroke="#666" fill="#666"/><path d="M-1070.15-460.68v74.9" stroke="#666" fill="none"/><path d="M-1069.68-460.67h-.95v-.5h.95z" stroke="#666" stroke-width=".05" fill="#666"/><path d="M-1070.15-371l-4.64-14.27h9.28z" stroke="#666" fill="#666"/><path d="M-1460.3-310.13a1.67 1.67 0 0 1 1.66-1.67h96.97a1.67 1.67 0 0 1 1.67 1.67 1.67 1.67 0 0 1-1.67 1.67h-96.97a1.67 1.67 0 0 1-1.67-1.67z"/><path d="M-1500-387.55v31.63a6 6 0 0 0 6 6h52.77a6 6 0 0 1 6 6v15.74" stroke="#666" fill="none"/><path d="M-1499.53-387.53h-.94v-.52h.94z" stroke="#666" stroke-width=".05" fill="#666"/><path d="M-1435.23-313.42l-4.63-14.26h9.27z" stroke="#666" fill="#666"/><path d="M-1440-236.25a1.67 1.67 0 0 1 1.67-1.67h396.66a1.67 1.67 0 0 1 1.67 1.67 1.67 1.67 0 0 1-1.67 1.67h-396.66a1.67 1.67 0 0 1-1.67-1.67zM-1290.15-57.17a1.67 1.67 0 0 1 1.67-1.67h96.96a1.67 1.67 0 0 1 1.67 1.67 1.67 1.67 0 0 1-1.67 1.66h-96.96a1.67 1.67 0 0 1-1.67-1.67z"/><path d="M-1340-116.92v22.54a6 6 0 0 0 6 6h62.92a6 6 0 0 1 6 6v5.03" stroke="#5e5e5e" stroke-width="2" fill="none"/><path d="M-1339.02-116.9h-1.95v-1.02h1.95z" stroke="#5e5e5e" stroke-width=".05" fill="#5e5e5e"/><path d="M-1265.08-62.08l-4.63-14.27h9.26z" stroke="#5e5e5e" stroke-width="2" fill="#5e5e5e"/><path d="M-1140-116.92v22.54a6 6 0 0 1-6 6h-62.92a6 6 0 0 0-6 6v5.03" stroke="#5e5e5e" stroke-width="2" fill="none"/><path d="M-1139.03-116.9h-1.95v-1.02h1.95z" stroke="#5e5e5e" stroke-width=".05" fill="#5e5e5e"/><path d="M-1214.92-62.08l-4.64-14.27h9.27z" stroke="#5e5e5e" stroke-width="2" fill="#5e5e5e"/><path d="M-1588.48 3.45c-6.36 0-11.52 5.16-11.52 11.52v34.55c0 6.36 5.16 11.52 11.52 11.52h136.96c6.36 0 11.52-5.16 11.52-11.52V14.97c0-6.36-5.16-11.52-11.52-11.52z" stroke="#000" stroke-opacity="0" fill="#0c7c7d"/><use xlink:href="#I" transform="matrix(1,0,0,1,-1592,11.452362390661417) translate(4.082164360480334 26.08173019498264)"/><use xlink:href="#J" transform="matrix(1,0,0,1,-1592,11.452362390661417) translate(72.41608797569657 26.08173019498264)"/><path d="M-1246.2 12.4a4.84 4.84 0 0 1 6.97 0l15.75 16.26a5.16 5.16 0 0 1 0 7.18l-15.75 16.26a4.84 4.84 0 0 1-6.96 0l-15.73-16.26a5.16 5.16 0 0 1 0-7.2z" stroke="#0c7c7d" stroke-width="4" fill="#fff"/><path d="M-1242.7-7.47V-55" stroke="#666" fill="none"/><path d="M-1242.7 7.3l-4.64-14.27h9.27z" stroke="#666" fill="#666"/><path d="M-1242.23-55h-.95v-.5h.95zM-1409.77 32.72h-13.85v-.95h13.85zm143.88 0h-29.73v-.95h29.74z" stroke="#666" stroke-width=".05" fill="#666"/><path d="M-1265.4 32.25l.04.47h-.55v-.95h.54z" fill="#666"/><path stroke="#666" stroke-width=".05" fill="#666"/><path d="M-1424.12 36.88l-14.26-4.63 14.26-4.64z" fill="#666"/><path d="M-1423.64 37.54l-16.28-5.3 16.28-5.28zm-13.2-5.3l12.25 4v-7.98z" stroke="#666" stroke-width=".05" fill="#666"/><use xlink:href="#K" transform="matrix(1,0,0,1,-1409.7671186584898,24.18032366311627) translate(0 12.916666666666668)"/><use xlink:href="#L" transform="matrix(1,0,0,1,-1409.7671186584898,24.18032366311627) translate(49.928385416666664 12.916666666666668)"/><path d="M-1449.22-616.08h-184.76l-.88.07-.85.2-.8.32-.75.46-.66.56-.57.66-.45.74-.33.8-.2.84-.08.88V26.23l.07.88.2.85.34.8.45.74.56.65.65.57.74.45.8.33.84.2.88.07h33.48v.95h-33.52l-1-.08-.98-.23-.94-.38-.87-.53-.78-.67-.66-.78-.53-.86-.4-.95-.23-1-.07-.98V-610.6l.07-1 .24-.98.4-.94.52-.86.66-.78.77-.66.86-.53.94-.4 1-.22.98-.08h184.8z" stroke="#666" stroke-width=".05" fill="#666"/><path d="M-1600 32.72h-.5v-.95h.5z" fill="#666"/><path stroke="#666" stroke-width=".05" fill="#666"/><path d="M-1434.46-616.56l-14.26 4.64v-9.27z" fill="#666"/><path d="M-1432.92-616.56l-16.28 5.3v-10.6zm-15.33 3.98l12.26-3.98-12.25-3.98z" stroke="#666" stroke-width=".05" fill="#666"/><path d="M-1028.48-1.9c-6.36 0-11.52 5.16-11.52 11.52v34.55c0 6.36 5.16 11.52 11.52 11.52h136.96c6.36 0 11.52-5.17 11.52-11.53V9.62c0-6.36-5.16-11.52-11.52-11.52z" stroke="#000" stroke-opacity="0" fill="#0c7c7d"/><g><use xlink:href="#M" transform="matrix(1,0,0,1,-1032,6.101586728453551) translate(47.0108475579612 26.08173019498264)"/><use xlink:href="#N" transform="matrix(1,0,0,1,-1032,6.101586728453551) translate(75.78230791022533 26.08173019498264)"/></g><path d="M-1182.34 32.72h-37.18v-.95h37.18zm125.95 0h-21.3v-.95h21.32z" stroke="#666" stroke-width=".05" fill="#666"/><path d="M-1219.5 32.72h-.56l.04-.47-.04-.48h.55z" fill="#666"/><path stroke="#666" stroke-width=".05" fill="#666"/><path d="M-1041.62 32.25l-14.27 4.63.02-9.27z" fill="#666"/><path d="M-1040.08 32.25l-16.28 5.3v-10.6zm-15.33 3.98l12.24-3.98-12.25-3.98z" stroke="#666" stroke-width=".05" fill="#666"/><g><use xlink:href="#K" transform="matrix(1,0,0,1,-1182.3356568769316,24.18032366311627) translate(0 12.916666666666668)"/><use xlink:href="#O" transform="matrix(1,0,0,1,-1182.3356568769316,24.18032366311627) translate(49.928385416666664 12.916666666666668)"/></g><path d="M-879.5 26.9h62.12" stroke="#666" fill="none"/><path d="M-879.5 27.37h-.5v-.95h.5z" stroke="#666" stroke-width=".05" fill="#666"/><path d="M-802.62 26.9l-14.26 4.63v-9.27z" stroke="#666" fill="#666"/><path d="M-760 26.9c0 11.04-8.95 20-20 20s-20-8.96-20-20c0-11.05 8.95-20 20-20s20 8.95 20 20z" stroke="#000" stroke-width="2" fill="#fff"/><path d="M-768 26.9c0 6.62-5.37 12-12 12s-12-5.38-12-12c0-6.63 5.37-12 12-12s12 5.37 12 12z" stroke="#000" stroke-width="2"/><path d="M-908.48-518.77c-6.36 0-11.52 5.16-11.52 11.52v34.55c0 6.36 5.16 11.52 11.52 11.52h136.96c6.36 0 11.52-5.16 11.52-11.52v-34.55c0-6.36-5.16-11.52-11.52-11.52z" stroke="#000" stroke-opacity="0" fill="#0c7c7d"/><g><use xlink:href="#P" transform="matrix(1,0,0,1,-912,-510.7707898086186) translate(48.91052790601847 13.53309088167189)"/><use xlink:href="#Q" transform="matrix(1,0,0,1,-912,-510.7707898086186) translate(14.201287507133692 30.435812255050394)"/><use xlink:href="#R" transform="matrix(1,0,0,1,-912,-510.7707898086186) translate(113.10062455015824 30.435812255050394)"/><use xlink:href="#A" transform="matrix(1,0,0,1,-912,-510.7707898086186) translate(25.050269889844955 47.33853362842889)"/></g><path d="M-840-587.26v52.1" stroke="#5e5e5e" fill="none"/><path d="M-839.52-587.25h-.96v-.5h.96z" stroke="#5e5e5e" stroke-width=".05" fill="#5e5e5e"/><path d="M-840-520.4l-4.63-14.25h9.26z" stroke="#5e5e5e" fill="#5e5e5e"/><defs><path fill="#fff" d="M600 0L52-1490h200c166 485 304 806 458 1336 156-533 285-846 449-1336h202L819 0H600" id="S"/><path fill="#fff" d="M158 0v-1118h180V0H158zm91-1301c-68 0-125-53-125-119s57-119 125-119c69 0 126 53 126 119s-57 119-126 119" id="T"/><path fill="#fff" d="M538 24C308 24 148-78 108-271l171-41c32 123 123 178 257 178 156 0 256-77 256-169 0-77-54-128-164-154l-186-44c-203-48-300-148-300-305 0-192 176-326 414-326 230 0 351 112 402 269l-163 42c-31-80-94-158-238-158-133 0-233 69-233 162 0 83 57 129 188 160l169 40c203 48 298 149 298 302 0 196-179 339-441 339" id="U"/><path fill="#fff" d="M537 14c-226 0-379-139-379-422v-710h180v695c0 172 97 275 253 275 160 0 281-109 281-300v-670h181V0H879v-209C806-46 684 14 537 14" id="V"/><path fill="#fff" d="M471 26C259 26 90-98 90-318c0-256 228-303 435-329 202-27 287-16 287-108 0-139-79-219-234-219-161 0-248 86-283 164l-173-57c86-203 278-265 451-265 150 0 419 46 419 395V0H815v-152h-12C765-73 660 26 471 26zm31-159c199 0 310-134 310-271v-155c-30 35-226 55-295 64-131 17-246 59-246 186 0 116 97 176 231 176" id="W"/><path fill="#fff" d="M338-1490V0H158v-1490h180" id="X"/><path fill="#fff" d="M126 0v-134l627-806v-11H146v-167h839v143L376-178v11h629V0H126" id="Y"/><path fill="#fff" d="M158 0v-1118h174v172h12c41-113 157-188 290-188 26 0 70 2 91 3v181c-11-2-60-10-108-10-161 0-279 109-279 260V0H158" id="Z"/><g id="a"><use transform="matrix(0.006821114355681396,0,0,0.006821114355681396,0,0)" xlink:href="#S"/><use transform="matrix(0.006821114355681396,0,0,0.006821114355681396,9.638234584577813,0)" xlink:href="#T"/><use transform="matrix(0.006821114355681396,0,0,0.006821114355681396,13.021507304995785,0)" xlink:href="#U"/><use transform="matrix(0.006821114355681396,0,0,0.006821114355681396,20.395131923487373,0)" xlink:href="#V"/><use transform="matrix(0.006821114355681396,0,0,0.006821114355681396,28.655501408217546,0)" xlink:href="#W"/><use transform="matrix(0.006821114355681396,0,0,0.006821114355681396,36.49978291725115,0)" xlink:href="#X"/><use transform="matrix(0.006821114355681396,0,0,0.006821114355681396,39.88305563766912,0)" xlink:href="#T"/><use transform="matrix(0.006821114355681396,0,0,0.006821114355681396,43.266328358087094,0)" xlink:href="#Y"/><use transform="matrix(0.006821114355681396,0,0,0.006821114355681396,50.98100869436276,0)" xlink:href="#W"/><use transform="matrix(0.006821114355681396,0,0,0.006821114355681396,58.825290203396364,0)" xlink:href="#Z"/></g><path fill="#fff" d="M158 418v-1536h174v179h20c37-59 106-193 324-193 279 0 474 222 474 576 0 356-194 580-473 580-213 0-288-135-325-197h-14v591H158zm492-555c209 0 317-186 317-421 0-232-105-413-317-413-206 0-314 166-314 413 0 249 111 421 314 421" id="aa"/><path fill="#fff" d="M471 26C259 26 90-98 90-318c0-256 228-303 435-329 202-27 287-16 287-108 0-139-79-219-234-219-161 0-248 86-283 164l-173-57c86-203 278-265 451-265 150 0 419 46 419 395V0H815v-152h-12C765-73 660 26 471 26zm31-159c199 0 310-134 310-271v-155c-30 35-226 55-295 64-131 17-246 59-246 186 0 116 97 176 231 176zm-23-1131l140-294h201l-194 294H479" id="ab"/><path fill="#fff" d="M611 442c-248 0-391-105-460-228l146-94c47 65 117 165 314 165 178 0 307-82 307-266v-224h-17C863-141 792-18 576-18c-268 0-472-195-472-546 0-346 197-568 476-568 216 0 288 133 326 193h17v-179h175V29c0 289-215 413-487 413zm-5-620c203 0 314-146 314-390 0-237-108-403-314-403-213 0-319 180-319 403 0 230 109 390 319 390" id="ac"/><path fill="#fff" d="M338-670V0H158v-1118h173l1 207c72-158 192-221 342-221 226 0 378 139 378 422V0H872v-695c0-172-96-275-252-275-161 0-282 109-282 300" id="ad"/><g id="b"><use transform="matrix(0.006821114355681396,0,0,0.006821114355681396,0,0)" xlink:href="#aa"/><use transform="matrix(0.006821114355681396,0,0,0.006821114355681396,8.6900996891381,0)" xlink:href="#ab"/><use transform="matrix(0.006821114355681396,0,0,0.006821114355681396,16.534381198171705,0)" xlink:href="#ac"/><use transform="matrix(0.006821114355681396,0,0,0.006821114355681396,25.10170082890754,0)" xlink:href="#T"/><use transform="matrix(0.006821114355681396,0,0,0.006821114355681396,28.48497354932551,0)" xlink:href="#ad"/><use transform="matrix(0.006821114355681396,0,0,0.006821114355681396,36.738521919700005,0)" xlink:href="#W"/></g><path fill="#fff" d="M613 24c-304 0-509-231-509-576 0-350 205-580 509-580 216 0 392 114 453 309l-173 49c-33-115-133-197-280-197-223 0-326 196-326 419 0 220 103 415 326 415 150 0 252-85 285-206l172 49C1010-95 832 24 613 24" id="ae"/><g id="c"><use transform="matrix(0.006821114355681396,0,0,0.006821114355681396,0,0)" xlink:href="#T"/><use transform="matrix(0.006821114355681396,0,0,0.006821114355681396,3.3832727204179727,0)" xlink:href="#ad"/><use transform="matrix(0.006821114355681396,0,0,0.006821114355681396,11.636821090792461,0)" xlink:href="#T"/><use transform="matrix(0.006821114355681396,0,0,0.006821114355681396,15.020093811210435,0)" xlink:href="#ae"/><use transform="matrix(0.006821114355681396,0,0,0.006821114355681396,23.00079760735767,0)" xlink:href="#T"/><use transform="matrix(0.006821114355681396,0,0,0.006821114355681396,26.384070327775643,0)" xlink:href="#W"/><use transform="matrix(0.006821114355681396,0,0,0.006821114355681396,34.228351836809246,0)" xlink:href="#X"/></g><path fill="#fff" d="M180 0v-1490h510c348 0 508 194 508 460 0 198-88 351-276 417L1256 0h-220L726-579c-117 2-238 0-356 1V0H180zm190-747h312c235 0 327-108 327-283 0-177-92-293-329-293H370v576" id="af"/><path fill="#fff" d="M628 24c-324 0-524-230-524-574 0-343 198-582 503-582 237 0 487 146 487 559v75H286c9 234 145 362 343 362 132 0 231-58 273-172l174 48C1024-91 857 24 628 24zM287-650h624c-17-190-120-322-304-322-192 0-309 151-320 322" id="ag"/><g id="d"><use transform="matrix(0.006821114355681396,0,0,0.006821114355681396,0,0)" xlink:href="#af"/><use transform="matrix(0.006821114355681396,0,0,0.006821114355681396,8.785595290117637,0)" xlink:href="#ag"/><use transform="matrix(0.006821114355681396,0,0,0.006821114355681396,17.066428117914853,0)" xlink:href="#W"/><use transform="matrix(0.006821114355681396,0,0,0.006821114355681396,24.91070962694846,0)" xlink:href="#X"/><use transform="matrix(0.006821114355681396,0,0,0.006821114355681396,28.29398234736643,0)" xlink:href="#T"/><use transform="matrix(0.006821114355681396,0,0,0.006821114355681396,31.67725506778441,0)" xlink:href="#Y"/><use transform="matrix(0.006821114355681396,0,0,0.006821114355681396,39.391935404060064,0)" xlink:href="#W"/><use transform="matrix(0.006821114355681396,0,0,0.006821114355681396,47.23621691309367,0)" xlink:href="#Z"/></g><path fill="#fff" d="M180 0v-1490h190v1322h690V0H180" id="ah"/><path fill="#fff" d="M613 24c-304 0-509-231-509-576 0-350 205-580 509-580 305 0 511 230 511 580 0 345-206 576-511 576zm0-161c226 0 329-195 329-415 0-222-103-419-329-419-223 0-326 196-326 419 0 220 103 415 326 415" id="ai"/><g id="e"><use transform="matrix(0.006821114355681396,0,0,0.006821114355681396,0,0)" xlink:href="#ah"/><use transform="matrix(0.006821114355681396,0,0,0.006821114355681396,7.898850423879057,0)" xlink:href="#ai"/><use transform="matrix(0.006821114355681396,0,0,0.006821114355681396,16.275178852655813,0)" xlink:href="#ac"/><use transform="matrix(0.006821114355681396,0,0,0.006821114355681396,24.842498483391648,0)" xlink:href="#T"/><use transform="matrix(0.006821114355681396,0,0,0.006821114355681396,28.225771203809625,0)" xlink:href="#ad"/></g><path fill="#666" d="M226 279v-1860h398v153H398V126h226v153H226" id="aj"/><path fill="#666" d="M598-1118v154H368v674c0 100 37 144 132 144 23 0 62-6 92-12L629-6c-37 13-88 20-134 20-193 0-307-107-307-290v-688H20v-154h168v-266h180v266h230" id="ak"/><path fill="#666" d="M628 24c-324 0-524-230-524-574 0-343 198-582 503-582 237 0 487 146 487 559v75H286c9 234 145 362 343 362 132 0 231-58 273-172l174 48C1024-91 857 24 628 24zM287-650h624c-17-190-120-322-304-322-192 0-309 151-320 322" id="al"/><path fill="#666" d="M158 0v-1118h175l1 205c55-151 181-225 313-225 147 0 245 90 285 228 53-141 190-228 352-228 194 0 352 125 352 384V0h-181v-749c0-161-105-225-225-225-151 0-243 103-243 244V0H807v-767c0-124-93-207-219-207-131 0-250 92-250 270V0H158" id="am"/><g id="f"><use transform="matrix(0.006821114355681396,0,0,0.006821114355681396,0,0)" xlink:href="#aj"/><use transform="matrix(0.006821114355681396,0,0,0.006821114355681396,5.095372423694003,0)" xlink:href="#ak"/><use transform="matrix(0.006821114355681396,0,0,0.006821114355681396,9.529096754886911,0)" xlink:href="#al"/><use transform="matrix(0.006821114355681396,0,0,0.006821114355681396,17.6735072955705,0)" xlink:href="#am"/></g><path fill="#666" d="M613 24c-304 0-509-231-509-576 0-350 205-580 509-580 216 0 392 114 453 309l-173 49c-33-115-133-197-280-197-223 0-326 196-326 419 0 220 103 415 326 415 150 0 252-85 285-206l172 49C1010-95 832 24 613 24" id="an"/><path fill="#666" d="M613 24c-304 0-509-231-509-576 0-350 205-580 509-580 305 0 511 230 511 580 0 345-206 576-511 576zm0-161c226 0 329-195 329-415 0-222-103-419-329-419-223 0-326 196-326 419 0 220 103 415 326 415" id="ao"/><path fill="#666" d="M338-670V0H158v-1118h173l1 207c72-158 192-221 342-221 226 0 378 139 378 422V0H872v-695c0-172-96-275-252-275-161 0-282 109-282 300" id="ap"/><path fill="#666" d="M471 26C259 26 90-98 90-318c0-256 228-303 435-329 202-27 287-16 287-108 0-139-79-219-234-219-161 0-248 86-283 164l-173-57c86-203 278-265 451-265 150 0 419 46 419 395V0H815v-152h-12C765-73 660 26 471 26zm31-159c199 0 310-134 310-271v-155c-30 35-226 55-295 64-131 17-246 59-246 186 0 116 97 176 231 176" id="aq"/><path fill="#666" d="M123 279V126h226v-1554H123v-153h398V279H123" id="ar"/><g id="g"><use transform="matrix(0.006821114355681396,0,0,0.006821114355681396,0,0)" xlink:href="#an"/><use transform="matrix(0.006821114355681396,0,0,0.006821114355681396,7.980703796147234,0)" xlink:href="#ao"/><use transform="matrix(0.006821114355681396,0,0,0.006821114355681396,16.35703222492399,0)" xlink:href="#ap"/><use transform="matrix(0.006821114355681396,0,0,0.006821114355681396,24.61058059529848,0)" xlink:href="#ak"/><use transform="matrix(0.006821114355681396,0,0,0.006821114355681396,29.248938357161826,0)" xlink:href="#aq"/><use transform="matrix(0.006821114355681396,0,0,0.006821114355681396,37.09321986619543,0)" xlink:href="#ar"/></g><path fill="#fff" d="M52 0l541-1490h220L1361 0h-200l-149-416H398L254 0H52zm404-582h497c-103-290-145-390-251-756-108 377-145 460-246 756" id="as"/><g id="h"><use transform="matrix(0.006821114355681396,0,0,0.006821114355681396,0,0)" xlink:href="#as"/><use transform="matrix(0.006821114355681396,0,0,0.006821114355681396,9.638234584577813,0)" xlink:href="#ae"/><use transform="matrix(0.006821114355681396,0,0,0.006821114355681396,17.618938380725048,0)" xlink:href="#ag"/><use transform="matrix(0.006821114355681396,0,0,0.006821114355681396,25.763348921408635,0)" xlink:href="#U"/><use transform="matrix(0.006821114355681396,0,0,0.006821114355681396,33.136973539900225,0)" xlink:href="#U"/><use transform="matrix(0.006821114355681396,0,0,0.006821114355681396,40.510598158391815,0)" xlink:href="#W"/><use transform="matrix(0.006821114355681396,0,0,0.006821114355681396,48.35487966742542,0)" xlink:href="#Z"/></g><path fill="#fff" d="M158 0v-1118h180V0H158zm12-1264l140-294h201l-194 294H170" id="at"/><path fill="#fff" d="M598-1118v154H368v674c0 100 37 144 132 144 23 0 62-6 92-12L629-6c-37 13-88 20-134 20-193 0-307-107-307-290v-688H20v-154h168v-266h180v266h230" id="au"/><g id="i"><use transform="matrix(0.006821114355681396,0,0,0.006821114355681396,0,0)" xlink:href="#ae"/><use transform="matrix(0.006821114355681396,0,0,0.006821114355681396,8.117126083260862,0)" xlink:href="#W"/><use transform="matrix(0.006821114355681396,0,0,0.006821114355681396,15.961407592294467,0)" xlink:href="#aa"/><use transform="matrix(0.006821114355681396,0,0,0.006821114355681396,24.51508499431894,0)" xlink:href="#at"/><use transform="matrix(0.006821114355681396,0,0,0.006821114355681396,27.898357714736914,0)" xlink:href="#au"/><use transform="matrix(0.006821114355681396,0,0,0.006821114355681396,32.46850433304345,0)" xlink:href="#V"/><use transform="matrix(0.006821114355681396,0,0,0.006821114355681396,40.72887381777362,0)" xlink:href="#X"/><use transform="matrix(0.006821114355681396,0,0,0.006821114355681396,44.11214653819159,0)" xlink:href="#ai"/></g><path fill="#fff" d="M180 0v-1490h270l367 940c28 72 75 218 110 339 35-117 81-264 110-339l362-940h271V0h-187c2-448-5-837 7-1287-157 497-311 829-483 1287H842C666-458 514-784 354-1284c12 438 5 843 7 1284H180" id="av"/><g id="j"><use transform="matrix(0.006821114355681396,0,0,0.006821114355681396,0,0)" xlink:href="#av"/><use transform="matrix(0.006821114355681396,0,0,0.006821114355681396,12.619061558010584,0)" xlink:href="#W"/><use transform="matrix(0.006821114355681396,0,0,0.006821114355681396,20.46334306704419,0)" xlink:href="#Z"/><use transform="matrix(0.006821114355681396,0,0,0.006821114355681396,25.49050434718138,0)" xlink:href="#ae"/><use transform="matrix(0.006821114355681396,0,0,0.006821114355681396,33.60763043044224,0)" xlink:href="#W"/><use transform="matrix(0.006821114355681396,0,0,0.006821114355681396,41.45191193947585,0)" xlink:href="#Z"/></g><g id="k"><use transform="matrix(0.006821114355681396,0,0,0.006821114355681396,0,0)" xlink:href="#Z"/><use transform="matrix(0.006821114355681396,0,0,0.006821114355681396,5.027161280137189,0)" xlink:href="#ag"/><use transform="matrix(0.006821114355681396,0,0,0.006821114355681396,13.171571820820777,0)" xlink:href="#U"/><use transform="matrix(0.006821114355681396,0,0,0.006821114355681396,20.545196439312367,0)" xlink:href="#aa"/><use transform="matrix(0.006821114355681396,0,0,0.006821114355681396,29.098873841336836,0)" xlink:href="#ai"/><use transform="matrix(0.006821114355681396,0,0,0.006821114355681396,37.4752022701136,0)" xlink:href="#U"/><use transform="matrix(0.006821114355681396,0,0,0.006821114355681396,44.84882688860519,0)" xlink:href="#au"/><use transform="matrix(0.006821114355681396,0,0,0.006821114355681396,49.48718465046854,0)" xlink:href="#W"/></g><path fill="#fff" d="M370-1490V0H180v-1490h190" id="aw"/><path fill="#fff" d="M158 0v-1118h175l1 205c55-151 181-225 313-225 147 0 245 90 285 228 53-141 190-228 352-228 194 0 352 125 352 384V0h-181v-749c0-161-105-225-225-225-151 0-243 103-243 244V0H807v-767c0-124-93-207-219-207-131 0-250 92-250 270V0H158" id="ax"/><g id="l"><use transform="matrix(0.006821114355681396,0,0,0.006821114355681396,0,0)" xlink:href="#aw"/><use transform="matrix(0.006821114355681396,0,0,0.006821114355681396,3.751612895624768,0)" xlink:href="#ad"/><use transform="matrix(0.006821114355681396,0,0,0.006821114355681396,12.005161265999256,0)" xlink:href="#ae"/><use transform="matrix(0.006821114355681396,0,0,0.006821114355681396,19.985865062146488,0)" xlink:href="#Z"/><use transform="matrix(0.006821114355681396,0,0,0.006821114355681396,25.013026342283677,0)" xlink:href="#ag"/><use transform="matrix(0.006821114355681396,0,0,0.006821114355681396,33.15743688296726,0)" xlink:href="#ax"/><use transform="matrix(0.006821114355681396,0,0,0.006821114355681396,45.39451603705969,0)" xlink:href="#ag"/><use transform="matrix(0.006821114355681396,0,0,0.006821114355681396,53.538926577743275,0)" xlink:href="#ad"/><use transform="matrix(0.006821114355681396,0,0,0.006821114355681396,61.79247494811777,0)" xlink:href="#au"/><use transform="matrix(0.006821114355681396,0,0,0.006821114355681396,66.43083270998112,0)" xlink:href="#W"/><use transform="matrix(0.006821114355681396,0,0,0.006821114355681396,74.27511421901472,0)" xlink:href="#Z"/></g><g id="m"><use transform="matrix(0.006821114355681396,0,0,0.006821114355681396,0,0)" xlink:href="#aa"/><use transform="matrix(0.006821114355681396,0,0,0.006821114355681396,8.553677402024471,0)" xlink:href="#Z"/><use transform="matrix(0.006821114355681396,0,0,0.006821114355681396,13.580838682161659,0)" xlink:href="#ai"/><use transform="matrix(0.006821114355681396,0,0,0.006821114355681396,21.957167110938414,0)" xlink:href="#ac"/><use transform="matrix(0.006821114355681396,0,0,0.006821114355681396,30.52448674167425,0)" xlink:href="#Z"/><use transform="matrix(0.006821114355681396,0,0,0.006821114355681396,35.55164802181144,0)" xlink:href="#ag"/><use transform="matrix(0.006821114355681396,0,0,0.006821114355681396,43.696058562495026,0)" xlink:href="#U"/><use transform="matrix(0.006821114355681396,0,0,0.006821114355681396,51.069683180986615,0)" xlink:href="#U"/><use transform="matrix(0.006821114355681396,0,0,0.006821114355681396,58.443307799478205,0)" xlink:href="#ai"/></g><path fill="#fff" d="M577 24c-279 0-473-224-473-580 0-354 195-576 474-576 218 0 287 134 324 193h14v-551h180V0H922v-173h-20C865-111 790 24 577 24zm27-161c203 0 314-172 314-421 0-247-108-413-314-413-212 0-317 181-317 413 0 235 108 421 317 421" id="ay"/><g id="n"><use transform="matrix(0.006821114355681396,0,0,0.006821114355681396,0,0)" xlink:href="#ae"/><use transform="matrix(0.006821114355681396,0,0,0.006821114355681396,8.117126083260862,0)" xlink:href="#W"/><use transform="matrix(0.006821114355681396,0,0,0.006821114355681396,15.961407592294467,0)" xlink:href="#ay"/><use transform="matrix(0.006821114355681396,0,0,0.006821114355681396,24.51508499431894,0)" xlink:href="#W"/><use transform="matrix(0.006821114355681396,0,0,0.006821114355681396,32.35936650335255,0)" xlink:href="#U"/><use transform="matrix(0.006821114355681396,0,0,0.006821114355681396,39.73299112184414,0)" xlink:href="#au"/><use transform="matrix(0.006821114355681396,0,0,0.006821114355681396,44.303137740150675,0)" xlink:href="#Z"/><use transform="matrix(0.006821114355681396,0,0,0.006821114355681396,49.33029902028787,0)" xlink:href="#ai"/></g><path fill="#666" d="M471 26C259 26 90-98 90-318c0-256 228-303 435-329 202-27 287-16 287-108 0-139-79-219-234-219-161 0-248 86-283 164l-173-57c86-203 278-265 451-265 150 0 419 46 419 395V0H815v-152h-12C765-73 660 26 471 26zm31-159c199 0 310-134 310-271v-155c-30 35-226 55-295 64-131 17-246 59-246 186 0 116 97 176 231 176zm187-1180c-99 0-192-83-243-83-35 0-51 40-53 79H267c4-120 55-208 162-208 104 0 174 85 241 85 33 0 49-23 56-81h123c-4 126-62 208-160 208" id="az"/><g id="o"><use transform="matrix(0.006510416666666667,0,0,0.006510416666666667,0,0)" xlink:href="#aj"/><use transform="matrix(0.006510416666666667,0,0,0.006510416666666667,4.86328125,0)" xlink:href="#ap"/><use transform="matrix(0.006510416666666667,0,0,0.006510416666666667,12.740885416666668,0)" xlink:href="#az"/><use transform="matrix(0.006510416666666667,0,0,0.006510416666666667,20.227864583333336,0)" xlink:href="#ao"/></g><g id="p"><use transform="matrix(0.006510416666666667,0,0,0.006510416666666667,0,0)" xlink:href="#ak"/><use transform="matrix(0.006510416666666667,0,0,0.006510416666666667,4.231770833333334,0)" xlink:href="#al"/><use transform="matrix(0.006510416666666667,0,0,0.006510416666666667,12.005208333333334,0)" xlink:href="#am"/></g><g id="q"><use transform="matrix(0.006510416666666667,0,0,0.006510416666666667,0,0)" xlink:href="#an"/><use transform="matrix(0.006510416666666667,0,0,0.006510416666666667,7.6171875,0)" xlink:href="#ao"/><use transform="matrix(0.006510416666666667,0,0,0.006510416666666667,15.611979166666668,0)" xlink:href="#ap"/><use transform="matrix(0.006510416666666667,0,0,0.006510416666666667,23.489583333333336,0)" xlink:href="#ak"/><use transform="matrix(0.006510416666666667,0,0,0.006510416666666667,27.916666666666675,0)" xlink:href="#aq"/><use transform="matrix(0.006510416666666667,0,0,0.006510416666666667,35.403645833333336,0)" xlink:href="#ar"/></g><path fill="#fff" d="M98-1322v-168h1126v168H757V0H567v-1322H98" id="aA"/><g id="r"><use transform="matrix(0.006821114355681396,0,0,0.006821114355681396,0,0)" xlink:href="#aA"/><use transform="matrix(0.006821114355681396,0,0,0.006821114355681396,7.926134881301783,0)" xlink:href="#ag"/><use transform="matrix(0.006821114355681396,0,0,0.006821114355681396,16.07054542198537,0)" xlink:href="#ai"/><use transform="matrix(0.006821114355681396,0,0,0.006821114355681396,24.446873850762124,0)" xlink:href="#Z"/><use transform="matrix(0.006821114355681396,0,0,0.006821114355681396,29.924228678374284,0)" xlink:href="#T"/><use transform="matrix(0.006821114355681396,0,0,0.006821114355681396,33.30750139879226,0)" xlink:href="#W"/></g><path fill="#333" d="M226 279v-1860h398v153H398V126h226v153H226" id="aB"/><path fill="#333" d="M481 0L54-1118h197c107 314 236 620 325 951 87-331 217-637 324-951h197L670 0H481" id="aC"/><path fill="#333" d="M628 24c-324 0-524-230-524-574 0-343 198-582 503-582 237 0 487 146 487 559v75H286c9 234 145 362 343 362 132 0 231-58 273-172l174 48C1024-91 857 24 628 24zM287-650h624c-17-190-120-322-304-322-192 0-309 151-320 322" id="aD"/><path fill="#333" d="M158 0v-1118h174v172h12c41-113 157-188 290-188 26 0 70 2 91 3v181c-11-2-60-10-108-10-161 0-279 109-279 260V0H158" id="aE"/><g id="s"><use transform="matrix(0.006510416666666667,0,0,0.006510416666666667,0,0)" xlink:href="#aB"/><use transform="matrix(0.006510416666666667,0,0,0.006510416666666667,4.86328125,0)" xlink:href="#aC"/><use transform="matrix(0.006510416666666667,0,0,0.006510416666666667,12.096354166666668,0)" xlink:href="#aD"/><use transform="matrix(0.006510416666666667,0,0,0.006510416666666667,19.869791666666668,0)" xlink:href="#aE"/></g><path fill="#333" d="M598-1118v154H368v674c0 100 37 144 132 144 23 0 62-6 92-12L629-6c-37 13-88 20-134 20-193 0-307-107-307-290v-688H20v-154h168v-266h180v266h230" id="aF"/><path fill="#333" d="M613 24c-304 0-509-231-509-576 0-350 205-580 509-580 305 0 511 230 511 580 0 345-206 576-511 576zm0-161c226 0 329-195 329-415 0-222-103-419-329-419-223 0-326 196-326 419 0 220 103 415 326 415" id="aG"/><path fill="#333" d="M158 0v-1118h180V0H158zm91-1301c-68 0-125-53-125-119s57-119 125-119c69 0 126 53 126 119s-57 119-126 119" id="aH"/><path fill="#333" d="M471 26C259 26 90-98 90-318c0-256 228-303 435-329 202-27 287-16 287-108 0-139-79-219-234-219-161 0-248 86-283 164l-173-57c86-203 278-265 451-265 150 0 419 46 419 395V0H815v-152h-12C765-73 660 26 471 26zm31-159c199 0 310-134 310-271v-155c-30 35-226 55-295 64-131 17-246 59-246 186 0 116 97 176 231 176" id="aI"/><path fill="#333" d="M123 279V126h226v-1554H123v-153h398V279H123" id="aJ"/><g id="t"><use transform="matrix(0.006510416666666667,0,0,0.006510416666666667,0,0)" xlink:href="#aF"/><use transform="matrix(0.006510416666666667,0,0,0.006510416666666667,4.231770833333334,0)" xlink:href="#aD"/><use transform="matrix(0.006510416666666667,0,0,0.006510416666666667,12.005208333333334,0)" xlink:href="#aG"/><use transform="matrix(0.006510416666666667,0,0,0.006510416666666667,20,0)" xlink:href="#aE"/><use transform="matrix(0.006510416666666667,0,0,0.006510416666666667,25.227864583333332,0)" xlink:href="#aH"/><use transform="matrix(0.006510416666666667,0,0,0.006510416666666667,28.45703125,0)" xlink:href="#aI"/><use transform="matrix(0.006510416666666667,0,0,0.006510416666666667,35.944010416666664,0)" xlink:href="#aJ"/></g><path fill="#fff" d="M338-670V0H158v-1490h180v566c73-149 190-208 336-208 226 0 379 139 379 422V0H872v-695c0-172-96-275-252-275-161 0-282 109-282 300" id="aK"/><g id="u"><use transform="matrix(0.006821114355681396,0,0,0.006821114355681396,0,0)" xlink:href="#as"/><use transform="matrix(0.006821114355681396,0,0,0.006821114355681396,9.638234584577813,0)" xlink:href="#ae"/><use transform="matrix(0.006821114355681396,0,0,0.006821114355681396,17.618938380725048,0)" xlink:href="#ai"/><use transform="matrix(0.006821114355681396,0,0,0.006821114355681396,25.995266809501803,0)" xlink:href="#ax"/><use transform="matrix(0.006821114355681396,0,0,0.006821114355681396,38.23234596359423,0)" xlink:href="#aa"/><use transform="matrix(0.006821114355681396,0,0,0.006821114355681396,46.92244565273232,0)" xlink:href="#W"/><use transform="matrix(0.006821114355681396,0,0,0.006821114355681396,54.76672716176593,0)" xlink:href="#ad"/><use transform="matrix(0.006821114355681396,0,0,0.006821114355681396,63.020275532140424,0)" xlink:href="#aK"/><use transform="matrix(0.006821114355681396,0,0,0.006821114355681396,71.2806450168706,0)" xlink:href="#W"/><use transform="matrix(0.006821114355681396,0,0,0.006821114355681396,79.1249265259042,0)" xlink:href="#Z"/></g><path fill="#333" d="M158 418v-1536h174v179h20c37-59 106-193 324-193 279 0 474 222 474 576 0 356-194 580-473 580-213 0-288-135-325-197h-14v591H158zm492-555c209 0 317-186 317-421 0-232-105-413-317-413-206 0-314 166-314 413 0 249 111 421 314 421" id="aL"/><path fill="#333" d="M678-1118v154H420V0H240v-964H20v-154h220v-149c0-194 155-293 318-293 85 0 141 18 168 30l-50 154c-19-6-47-17-97-17-111 0-159 58-159 166v109h258" id="aM"/><path fill="#333" d="M338-1490V0H158v-1490h180" id="aN"/><g id="v"><use transform="matrix(0.006510416666666667,0,0,0.006510416666666667,0,0)" xlink:href="#aL"/><use transform="matrix(0.006510416666666667,0,0,0.006510416666666667,8.1640625,0)" xlink:href="#aD"/><use transform="matrix(0.006510416666666667,0,0,0.006510416666666667,15.9375,0)" xlink:href="#aE"/><use transform="matrix(0.006510416666666667,0,0,0.006510416666666667,21.165364583333332,0)" xlink:href="#aM"/><use transform="matrix(0.006510416666666667,0,0,0.006510416666666667,26.100260416666664,0)" xlink:href="#aH"/><use transform="matrix(0.006510416666666667,0,0,0.006510416666666667,29.329427083333336,0)" xlink:href="#aN"/><use transform="matrix(0.006510416666666667,0,0,0.006510416666666667,32.55859375,0)" xlink:href="#aJ"/></g><path fill="#fff" d="M678-1118v154H420V0H240v-964H20v-154h220v-149c0-194 155-293 318-293 85 0 141 18 168 30l-50 154c-19-6-47-17-97-17-111 0-159 58-159 166v109h258" id="aO"/><g id="w"><use transform="matrix(0.006821114355681396,0,0,0.006821114355681396,0,0)" xlink:href="#S"/><use transform="matrix(0.006821114355681396,0,0,0.006821114355681396,8.928838691586947,0)" xlink:href="#ag"/><use transform="matrix(0.006821114355681396,0,0,0.006821114355681396,17.073249232270534,0)" xlink:href="#Z"/><use transform="matrix(0.006821114355681396,0,0,0.006821114355681396,22.550604059882698,0)" xlink:href="#T"/><use transform="matrix(0.006821114355681396,0,0,0.006821114355681396,25.933876780300672,0)" xlink:href="#aO"/><use transform="matrix(0.006821114355681396,0,0,0.006821114355681396,31.104281461907174,0)" xlink:href="#T"/><use transform="matrix(0.006821114355681396,0,0,0.006821114355681396,34.48755418232514,0)" xlink:href="#ae"/><use transform="matrix(0.006821114355681396,0,0,0.006821114355681396,42.604680265586,0)" xlink:href="#W"/><use transform="matrix(0.006821114355681396,0,0,0.006821114355681396,50.448961774619605,0)" xlink:href="#Z"/></g><g id="x"><use transform="matrix(0.006821114355681396,0,0,0.006821114355681396,0,0)" xlink:href="#aa"/><use transform="matrix(0.006821114355681396,0,0,0.006821114355681396,8.553677402024471,0)" xlink:href="#ag"/><use transform="matrix(0.006821114355681396,0,0,0.006821114355681396,16.698087942708057,0)" xlink:href="#Z"/><use transform="matrix(0.006821114355681396,0,0,0.006821114355681396,22.17544277032022,0)" xlink:href="#aO"/><use transform="matrix(0.006821114355681396,0,0,0.006821114355681396,27.34584745192672,0)" xlink:href="#T"/><use transform="matrix(0.006821114355681396,0,0,0.006821114355681396,30.72912017234469,0)" xlink:href="#X"/></g><path fill="#fff" d="M628 24c-324 0-524-230-524-574 0-343 198-582 503-582 237 0 487 146 487 559v75H286c9 234 145 362 343 362 132 0 231-58 273-172l174 48C1024-91 857 24 628 24zM287-650h624c-17-190-120-322-304-322-192 0-309 151-320 322zm172-632H282v-9l235-267h171l236 267v9H745l-142-175" id="aP"/><g id="y"><use transform="matrix(0.006821114355681396,0,0,0.006821114355681396,0,0)" xlink:href="#aa"/><use transform="matrix(0.006821114355681396,0,0,0.006821114355681396,8.553677402024471,0)" xlink:href="#Z"/><use transform="matrix(0.006821114355681396,0,0,0.006821114355681396,13.580838682161659,0)" xlink:href="#ag"/><use transform="matrix(0.006821114355681396,0,0,0.006821114355681396,21.725249222845246,0)" xlink:href="#aO"/><use transform="matrix(0.006821114355681396,0,0,0.006821114355681396,26.48638704311086,0)" xlink:href="#ag"/><use transform="matrix(0.006821114355681396,0,0,0.006821114355681396,34.63079758379445,0)" xlink:href="#Z"/><use transform="matrix(0.006821114355681396,0,0,0.006821114355681396,39.65795886393164,0)" xlink:href="#aP"/><use transform="matrix(0.006821114355681396,0,0,0.006821114355681396,47.80236940461523,0)" xlink:href="#ad"/><use transform="matrix(0.006821114355681396,0,0,0.006821114355681396,56.055917774989716,0)" xlink:href="#ae"/><use transform="matrix(0.006821114355681396,0,0,0.006821114355681396,64.03662157113695,0)" xlink:href="#T"/><use transform="matrix(0.006821114355681396,0,0,0.006821114355681396,67.41989429155493,0)" xlink:href="#W"/><use transform="matrix(0.006821114355681396,0,0,0.006821114355681396,75.26417580058853,0)" xlink:href="#U"/></g><g id="z"><use transform="matrix(0.006821114355681396,0,0,0.006821114355681396,0,0)" xlink:href="#ay"/><use transform="matrix(0.006821114355681396,0,0,0.006821114355681396,8.553677402024471,0)" xlink:href="#ag"/></g><path fill="#fff" d="M677 24c-213 0-288-135-325-197h-20V0H158v-1490h180v551h14c37-59 106-193 324-193 279 0 474 222 474 576 0 356-194 580-473 580zm-27-161c209 0 317-186 317-421 0-232-105-413-317-413-206 0-314 166-314 413 0 249 111 421 314 421" id="aQ"/><g id="A"><use transform="matrix(0.006821114355681396,0,0,0.006821114355681396,0,0)" xlink:href="#W"/><use transform="matrix(0.006821114355681396,0,0,0.006821114355681396,7.844281509033606,0)" xlink:href="#ae"/><use transform="matrix(0.006821114355681396,0,0,0.006821114355681396,15.824985305180839,0)" xlink:href="#ag"/><use transform="matrix(0.006821114355681396,0,0,0.006821114355681396,23.969395845864426,0)" xlink:href="#U"/><use transform="matrix(0.006821114355681396,0,0,0.006821114355681396,31.343020464356016,0)" xlink:href="#U"/><use transform="matrix(0.006821114355681396,0,0,0.006821114355681396,38.716645082847606,0)" xlink:href="#T"/><use transform="matrix(0.006821114355681396,0,0,0.006821114355681396,42.099917803265576,0)" xlink:href="#aQ"/><use transform="matrix(0.006821114355681396,0,0,0.006821114355681396,50.653595205290046,0)" xlink:href="#T"/><use transform="matrix(0.006821114355681396,0,0,0.006821114355681396,54.036867925708016,0)" xlink:href="#X"/><use transform="matrix(0.006821114355681396,0,0,0.006821114355681396,57.42014064612598,0)" xlink:href="#T"/><use transform="matrix(0.006821114355681396,0,0,0.006821114355681396,60.80341336654396,0)" xlink:href="#ay"/><use transform="matrix(0.006821114355681396,0,0,0.006821114355681396,69.35709076856843,0)" xlink:href="#W"/><use transform="matrix(0.006821114355681396,0,0,0.006821114355681396,77.20137227760203,0)" xlink:href="#ay"/><use transform="matrix(0.006821114355681396,0,0,0.006821114355681396,85.75504967962651,0)" xlink:href="#ag"/></g><path fill="#333" d="M538 24C308 24 148-78 108-271l171-41c32 123 123 178 257 178 156 0 256-77 256-169 0-77-54-128-164-154l-186-44c-203-48-300-148-300-305 0-192 176-326 414-326 230 0 351 112 402 269l-163 42c-31-80-94-158-238-158-133 0-233 69-233 162 0 83 57 129 188 160l169 40c203 48 298 149 298 302 0 196-179 339-441 339" id="aR"/><path fill="#333" d="M537 14c-226 0-379-139-379-422v-710h180v695c0 172 97 275 253 275 160 0 281-109 281-300v-670h181V0H879v-209C806-46 684 14 537 14" id="aS"/><path fill="#333" d="M577 24c-279 0-473-224-473-580 0-354 195-576 474-576 218 0 287 134 324 193h14v-551h180V0H922v-173h-20C865-111 790 24 577 24zm27-161c203 0 314-172 314-421 0-247-108-413-314-413-212 0-317 181-317 413 0 235 108 421 317 421" id="aT"/><g id="B"><use transform="matrix(0.006510416666666667,0,0,0.006510416666666667,0,0)" xlink:href="#aB"/><use transform="matrix(0.006510416666666667,0,0,0.006510416666666667,4.713541666666667,0)" xlink:href="#aD"/><use transform="matrix(0.006510416666666667,0,0,0.006510416666666667,12.486979166666668,0)" xlink:href="#aR"/><use transform="matrix(0.006510416666666667,0,0,0.006510416666666667,19.524739583333336,0)" xlink:href="#aF"/><use transform="matrix(0.006510416666666667,0,0,0.006510416666666667,23.886718750000004,0)" xlink:href="#aS"/><use transform="matrix(0.006510416666666667,0,0,0.006510416666666667,31.770833333333336,0)" xlink:href="#aT"/><use transform="matrix(0.006510416666666667,0,0,0.006510416666666667,39.934895833333336,0)" xlink:href="#aI"/><use transform="matrix(0.006510416666666667,0,0,0.006510416666666667,47.421875,0)" xlink:href="#aE"/><use transform="matrix(0.006510416666666667,0,0,0.006510416666666667,52.44140625,0)" xlink:href="#aJ"/></g><path fill="#333" d="M613 24c-304 0-509-231-509-576 0-350 205-580 509-580 216 0 392 114 453 309l-173 49c-33-115-133-197-280-197-223 0-326 196-326 419 0 220 103 415 326 415 150 0 252-85 285-206l172 49C1010-95 832 24 613 24" id="aU"/><g id="C"><use transform="matrix(0.006510416666666667,0,0,0.006510416666666667,0,0)" xlink:href="#aB"/><use transform="matrix(0.006510416666666667,0,0,0.006510416666666667,4.86328125,0)" xlink:href="#aL"/><use transform="matrix(0.006510416666666667,0,0,0.006510416666666667,13.02734375,0)" xlink:href="#aE"/><use transform="matrix(0.006510416666666667,0,0,0.006510416666666667,18.046875,0)" xlink:href="#aI"/><use transform="matrix(0.006510416666666667,0,0,0.006510416666666667,25.533854166666668,0)" xlink:href="#aF"/><use transform="matrix(0.006510416666666667,0,0,0.006510416666666667,29.895833333333336,0)" xlink:href="#aH"/><use transform="matrix(0.006510416666666667,0,0,0.006510416666666667,33.125,0)" xlink:href="#aU"/><use transform="matrix(0.006510416666666667,0,0,0.006510416666666667,40.872395833333336,0)" xlink:href="#aI"/><use transform="matrix(0.006510416666666667,0,0,0.006510416666666667,48.359375,0)" xlink:href="#aE"/><use transform="matrix(0.006510416666666667,0,0,0.006510416666666667,53.37890625,0)" xlink:href="#aJ"/></g><path fill="#fff" d="M481 0L54-1118h197c107 314 236 620 325 951 87-331 217-637 324-951h197L670 0H481" id="aV"/><g id="D"><use transform="matrix(0.006821114355681396,0,0,0.006821114355681396,0,0)" xlink:href="#W"/><use transform="matrix(0.006821114355681396,0,0,0.006821114355681396,7.844281509033606,0)" xlink:href="#au"/><use transform="matrix(0.006821114355681396,0,0,0.006821114355681396,12.414428127340141,0)" xlink:href="#T"/><use transform="matrix(0.006821114355681396,0,0,0.006821114355681396,15.797700847758113,0)" xlink:href="#aV"/><use transform="matrix(0.006821114355681396,0,0,0.006821114355681396,23.6488034711474,0)" xlink:href="#T"/><use transform="matrix(0.006821114355681396,0,0,0.006821114355681396,27.032076191565373,0)" xlink:href="#ay"/><use transform="matrix(0.006821114355681396,0,0,0.006821114355681396,35.58575359358984,0)" xlink:href="#W"/><use transform="matrix(0.006821114355681396,0,0,0.006821114355681396,43.43003510262345,0)" xlink:href="#ay"/><use transform="matrix(0.006821114355681396,0,0,0.006821114355681396,51.98371250464792,0)" xlink:href="#ag"/></g><g id="E"><use transform="matrix(0.006821114355681396,0,0,0.006821114355681396,0,0)" xlink:href="#af"/><use transform="matrix(0.006821114355681396,0,0,0.006821114355681396,8.785595290117637,0)" xlink:href="#ag"/><use transform="matrix(0.006821114355681396,0,0,0.006821114355681396,16.930005830801225,0)" xlink:href="#ae"/><use transform="matrix(0.006821114355681396,0,0,0.006821114355681396,24.91070962694846,0)" xlink:href="#ag"/><use transform="matrix(0.006821114355681396,0,0,0.006821114355681396,33.05512016763205,0)" xlink:href="#aQ"/><use transform="matrix(0.006821114355681396,0,0,0.006821114355681396,41.60879756965652,0)" xlink:href="#ag"/><use transform="matrix(0.006821114355681396,0,0,0.006821114355681396,49.753208110340104,0)" xlink:href="#Z"/></g><path fill="#fff" d="M158 0v-1490h180v865h22l478-493h223L593-638 1096 0H865L456-523 338-412V0H158" id="aW"/><g id="F"><use transform="matrix(0.006821114355681396,0,0,0.006821114355681396,0,0)" xlink:href="#aO"/><use transform="matrix(0.006821114355681396,0,0,0.006821114355681396,4.761137820265615,0)" xlink:href="#ag"/><use transform="matrix(0.006821114355681396,0,0,0.006821114355681396,12.905548360949203,0)" xlink:href="#ag"/><use transform="matrix(0.006821114355681396,0,0,0.006821114355681396,21.04995890163279,0)" xlink:href="#ay"/><use transform="matrix(0.006821114355681396,0,0,0.006821114355681396,29.60363630365726,0)" xlink:href="#aQ"/><use transform="matrix(0.006821114355681396,0,0,0.006821114355681396,38.29373599279536,0)" xlink:href="#W"/><use transform="matrix(0.006821114355681396,0,0,0.006821114355681396,46.13801750182897,0)" xlink:href="#ae"/><use transform="matrix(0.006821114355681396,0,0,0.006821114355681396,54.1187212979762,0)" xlink:href="#aW"/></g><g id="G"><use transform="matrix(0.006821114355681396,0,0,0.006821114355681396,0,0)" xlink:href="#af"/><use transform="matrix(0.006821114355681396,0,0,0.006821114355681396,8.785595290117637,0)" xlink:href="#ag"/><use transform="matrix(0.006821114355681396,0,0,0.006821114355681396,16.930005830801225,0)" xlink:href="#ae"/><use transform="matrix(0.006821114355681396,0,0,0.006821114355681396,24.91070962694846,0)" xlink:href="#ag"/><use transform="matrix(0.006821114355681396,0,0,0.006821114355681396,33.05512016763205,0)" xlink:href="#aQ"/><use transform="matrix(0.006821114355681396,0,0,0.006821114355681396,41.60879756965652,0)" xlink:href="#ag"/><use transform="matrix(0.006821114355681396,0,0,0.006821114355681396,49.753208110340104,0)" xlink:href="#Z"/></g><g id="H"><use transform="matrix(0.006821114355681396,0,0,0.006821114355681396,0,0)" xlink:href="#af"/><use transform="matrix(0.006821114355681396,0,0,0.006821114355681396,8.785595290117637,0)" xlink:href="#ag"/><use transform="matrix(0.006821114355681396,0,0,0.006821114355681396,16.930005830801225,0)" xlink:href="#ae"/><use transform="matrix(0.006821114355681396,0,0,0.006821114355681396,24.91070962694846,0)" xlink:href="#ai"/><use transform="matrix(0.006821114355681396,0,0,0.006821114355681396,33.28703805572522,0)" xlink:href="#ax"/><use transform="matrix(0.006821114355681396,0,0,0.006821114355681396,45.524117209817646,0)" xlink:href="#aa"/><use transform="matrix(0.006821114355681396,0,0,0.006821114355681396,54.077794611842116,0)" xlink:href="#ag"/><use transform="matrix(0.006821114355681396,0,0,0.006821114355681396,62.222205152525696,0)" xlink:href="#ad"/><use transform="matrix(0.006821114355681396,0,0,0.006821114355681396,70.47575352290019,0)" xlink:href="#U"/><use transform="matrix(0.006821114355681396,0,0,0.006821114355681396,77.84937814139178,0)" xlink:href="#W"/></g><path fill="#fff" d="M783 20c-382 0-661-292-661-764 0-473 279-766 661-766 302 0 548 182 601 489h-190c-42-204-217-313-411-313-268 0-476 208-476 590 0 381 209 588 476 588 195 0 369-110 411-313h190c-52 303-296 489-601 489" id="aX"/><g id="I"><use transform="matrix(0.006821114355681396,0,0,0.006821114355681396,0,0)" xlink:href="#aX"/><use transform="matrix(0.006821114355681396,0,0,0.006821114355681396,10.20438707609937,0)" xlink:href="#ai"/><use transform="matrix(0.006821114355681396,0,0,0.006821114355681396,18.580715504876125,0)" xlink:href="#ad"/><use transform="matrix(0.006821114355681396,0,0,0.006821114355681396,26.834263875250613,0)" xlink:href="#au"/><use transform="matrix(0.006821114355681396,0,0,0.006821114355681396,31.404410493557148,0)" xlink:href="#T"/><use transform="matrix(0.006821114355681396,0,0,0.006821114355681396,34.78768321397512,0)" xlink:href="#ad"/><use transform="matrix(0.006821114355681396,0,0,0.006821114355681396,43.04123158434961,0)" xlink:href="#V"/><use transform="matrix(0.006821114355681396,0,0,0.006821114355681396,51.30160106907978,0)" xlink:href="#W"/><use transform="matrix(0.006821114355681396,0,0,0.006821114355681396,59.14588257811339,0)" xlink:href="#Z"/></g><g id="J"><use transform="matrix(0.006821114355681396,0,0,0.006821114355681396,0,0)" xlink:href="#W"/><use transform="matrix(0.006821114355681396,0,0,0.006821114355681396,7.844281509033606,0)" xlink:href="#au"/><use transform="matrix(0.006821114355681396,0,0,0.006821114355681396,12.414428127340141,0)" xlink:href="#T"/><use transform="matrix(0.006821114355681396,0,0,0.006821114355681396,15.797700847758113,0)" xlink:href="#aV"/><use transform="matrix(0.006821114355681396,0,0,0.006821114355681396,23.6488034711474,0)" xlink:href="#T"/><use transform="matrix(0.006821114355681396,0,0,0.006821114355681396,27.032076191565373,0)" xlink:href="#ay"/><use transform="matrix(0.006821114355681396,0,0,0.006821114355681396,35.58575359358984,0)" xlink:href="#W"/><use transform="matrix(0.006821114355681396,0,0,0.006821114355681396,43.43003510262345,0)" xlink:href="#ay"/><use transform="matrix(0.006821114355681396,0,0,0.006821114355681396,51.98371250464792,0)" xlink:href="#ag"/><use transform="matrix(0.006821114355681396,0,0,0.006821114355681396,60.128123045331506,0)" xlink:href="#U"/></g><path fill="#333" d="M157-1118h181V80c1 225-123 350-364 338V252c126 9 184-48 183-172v-1198zm91-183c-68 0-125-53-125-119s57-119 125-119c69 0 126 53 126 119s-57 119-126 119" id="aY"/><g id="K"><use transform="matrix(0.006510416666666667,0,0,0.006510416666666667,0,0)" xlink:href="#aB"/><use transform="matrix(0.006510416666666667,0,0,0.006510416666666667,4.713541666666667,0)" xlink:href="#aT"/><use transform="matrix(0.006510416666666667,0,0,0.006510416666666667,12.877604166666668,0)" xlink:href="#aD"/><use transform="matrix(0.006510416666666667,0,0,0.006510416666666667,20.651041666666668,0)" xlink:href="#aR"/><use transform="matrix(0.006510416666666667,0,0,0.006510416666666667,27.688802083333336,0)" xlink:href="#aD"/><use transform="matrix(0.006510416666666667,0,0,0.006510416666666667,35.462239583333336,0)" xlink:href="#aY"/><use transform="matrix(0.006510416666666667,0,0,0.006510416666666667,38.69140625,0)" xlink:href="#aI"/></g><path fill="#333" d="M338-670V0H158v-1118h173l1 207c72-158 192-221 342-221 226 0 378 139 378 422V0H872v-695c0-172-96-275-252-275-161 0-282 109-282 300" id="aZ"/><g id="L"><use transform="matrix(0.006510416666666667,0,0,0.006510416666666667,0,0)" xlink:href="#aU"/><use transform="matrix(0.006510416666666667,0,0,0.006510416666666667,7.6171875,0)" xlink:href="#aG"/><use transform="matrix(0.006510416666666667,0,0,0.006510416666666667,15.611979166666668,0)" xlink:href="#aZ"/><use transform="matrix(0.006510416666666667,0,0,0.006510416666666667,23.489583333333336,0)" xlink:href="#aF"/><use transform="matrix(0.006510416666666667,0,0,0.006510416666666667,27.8515625,0)" xlink:href="#aH"/><use transform="matrix(0.006510416666666667,0,0,0.006510416666666667,31.080729166666675,0)" xlink:href="#aZ"/><use transform="matrix(0.006510416666666667,0,0,0.006510416666666667,38.958333333333336,0)" xlink:href="#aS"/><use transform="matrix(0.006510416666666667,0,0,0.006510416666666667,46.84244791666667,0)" xlink:href="#aI"/><use transform="matrix(0.006510416666666667,0,0,0.006510416666666667,54.329427083333336,0)" xlink:href="#aE"/><use transform="matrix(0.006510416666666667,0,0,0.006510416666666667,59.348958333333336,0)" xlink:href="#aJ"/></g><g id="M"><use transform="matrix(0.006821114355681396,0,0,0.006821114355681396,0,0)" xlink:href="#ah"/><use transform="matrix(0.006821114355681396,0,0,0.006821114355681396,7.898850423879057,0)" xlink:href="#ai"/><use transform="matrix(0.006821114355681396,0,0,0.006821114355681396,16.275178852655813,0)" xlink:href="#ac"/></g><g id="N"><use transform="matrix(0.006821114355681396,0,0,0.006821114355681396,0,0)" xlink:href="#ai"/><use transform="matrix(0.006821114355681396,0,0,0.006821114355681396,8.376328428776755,0)" xlink:href="#V"/><use transform="matrix(0.006821114355681396,0,0,0.006821114355681396,16.63669791350693,0)" xlink:href="#au"/></g><path fill="#333" d="M126 0v-134l627-806v-11H146v-167h839v143L376-178v11h629V0H126" id="ba"/><g id="O"><use transform="matrix(0.006510416666666667,0,0,0.006510416666666667,0,0)" xlink:href="#aM"/><use transform="matrix(0.006510416666666667,0,0,0.006510416666666667,4.934895833333334,0)" xlink:href="#aH"/><use transform="matrix(0.006510416666666667,0,0,0.006510416666666667,8.1640625,0)" xlink:href="#aZ"/><use transform="matrix(0.006510416666666667,0,0,0.006510416666666667,16.041666666666668,0)" xlink:href="#aI"/><use transform="matrix(0.006510416666666667,0,0,0.006510416666666667,23.528645833333336,0)" xlink:href="#aN"/><use transform="matrix(0.006510416666666667,0,0,0.006510416666666667,26.7578125,0)" xlink:href="#aH"/><use transform="matrix(0.006510416666666667,0,0,0.006510416666666667,29.986979166666675,0)" xlink:href="#ba"/><use transform="matrix(0.006510416666666667,0,0,0.006510416666666667,37.35026041666667,0)" xlink:href="#aI"/><use transform="matrix(0.006510416666666667,0,0,0.006510416666666667,44.837239583333336,0)" xlink:href="#aE"/><use transform="matrix(0.006510416666666667,0,0,0.006510416666666667,49.856770833333336,0)" xlink:href="#aJ"/></g><g id="P"><use transform="matrix(0.006821114355681396,0,0,0.006821114355681396,0,0)" xlink:href="#as"/><use transform="matrix(0.006821114355681396,0,0,0.006821114355681396,9.638234584577813,0)" xlink:href="#aa"/><use transform="matrix(0.006821114355681396,0,0,0.006821114355681396,18.191911986602285,0)" xlink:href="#X"/><use transform="matrix(0.006821114355681396,0,0,0.006821114355681396,21.57518470702026,0)" xlink:href="#T"/><use transform="matrix(0.006821114355681396,0,0,0.006821114355681396,24.958457427438233,0)" xlink:href="#ae"/><use transform="matrix(0.006821114355681396,0,0,0.006821114355681396,33.0755835106991,0)" xlink:href="#W"/><use transform="matrix(0.006821114355681396,0,0,0.006821114355681396,40.919865019732704,0)" xlink:href="#Z"/></g><path fill="#fff" d="M502 418V313h118c73 0 98-17 98-66s-25-65-98-65h-82l21-161C285-4 104-228 104-552c0-350 205-580 509-580 216 0 392 114 453 309l-173 49c-33-115-133-197-280-197-223 0-326 196-326 419 0 220 103 415 326 415 150 0 252-85 285-206l172 49C1015-110 859 5 663 22v64c130 5 189 54 189 162 0 118-71 170-231 170H502" id="bb"/><path fill="#fff" d="M613 24c-304 0-509-231-509-576 0-350 205-580 509-580 305 0 511 230 511 580 0 345-206 576-511 576zm0-161c226 0 329-195 329-415 0-222-103-419-329-419-223 0-326 196-326 419 0 220 103 415 326 415zm131-1176c-99 0-192-83-243-83-35 0-51 40-53 79H322c4-120 55-208 162-208 104 0 174 85 241 85 33 0 49-23 56-81h123c-4 126-62 208-160 208" id="bc"/><g id="Q"><use transform="matrix(0.006821114355681396,0,0,0.006821114355681396,0,0)" xlink:href="#ae"/><use transform="matrix(0.006821114355681396,0,0,0.006821114355681396,7.980703796147234,0)" xlink:href="#ai"/><use transform="matrix(0.006821114355681396,0,0,0.006821114355681396,16.35703222492399,0)" xlink:href="#ad"/><use transform="matrix(0.006821114355681396,0,0,0.006821114355681396,24.61058059529848,0)" xlink:href="#aO"/><use transform="matrix(0.006821114355681396,0,0,0.006821114355681396,29.780985276904975,0)" xlink:href="#T"/><use transform="matrix(0.006821114355681396,0,0,0.006821114355681396,33.16425799732295,0)" xlink:href="#ac"/><use transform="matrix(0.006821114355681396,0,0,0.006821114355681396,41.73157762805879,0)" xlink:href="#V"/><use transform="matrix(0.006821114355681396,0,0,0.006821114355681396,49.99194711278896,0)" xlink:href="#Z"/><use transform="matrix(0.006821114355681396,0,0,0.006821114355681396,55.251026281019314,0)" xlink:href="#W"/><use transform="matrix(0.006821114355681396,0,0,0.006821114355681396,63.095307790052914,0)" xlink:href="#bb"/><use transform="matrix(0.006821114355681396,0,0,0.006821114355681396,71.07601158620015,0)" xlink:href="#bc"/><use transform="matrix(0.006821114355681396,0,0,0.006821114355681396,79.45234001497691,0)" xlink:href="#ag"/><use transform="matrix(0.006821114355681396,0,0,0.006821114355681396,87.59675055566049,0)" xlink:href="#U"/></g><g id="R"><use transform="matrix(0.006821114355681396,0,0,0.006821114355681396,0,0)" xlink:href="#ay"/><use transform="matrix(0.006821114355681396,0,0,0.006821114355681396,8.553677402024471,0)" xlink:href="#ag"/></g></defs></g></svg>