<svg xmlns="http://www.w3.org/2000/svg" xmlns:xlink="http://www.w3.org/1999/xlink" xmlns:lucid="lucid" width="2066.68" height="952"><g transform="translate(-458.3478732638889 -69.99999999999997)" lucid:page-tab-id="0_0"><path d="M0 0h3000v1500H0z" fill="#fff"/><path d="M500 282v17.92m0 17.9v35.85m0 17.9v35.85m0 17.9v35.85m0 17.9V497M500 282.05V280" stroke="#5e5e5e" stroke-width="4" fill="none"/><path d="M501.98 499h-3.96v-2.05h3.96z" stroke="#5e5e5e" stroke-width=".05" fill="#5e5e5e"/><path d="M500 803v21.67m0 21.66v43.34m0 21.66v43.34m0 21.66V998" stroke="#5e5e5e" stroke-width="4" fill="none"/><path d="M501.98 803.05h-3.96V801h3.96z" stroke="#5e5e5e" stroke-width=".05" fill="#5e5e5e"/><path d="M500 997.95v2.05" stroke="#5e5e5e" stroke-width="4" fill="none"/><path d="M1861.9 240c-49.7 0-90-35.82-90-80s40.3-80 90-80 90 35.82 90 80-40.3 80-90 80z" stroke="#000" stroke-width="2" fill="#fff"/><path d="M1771.9 240h180" stroke="#000" stroke-width="2" fill="none"/><use xlink:href="#a" transform="matrix(1,0,0,1,1731.8964314419209,240) translate(78.52430555555556 21.52777777777778)"/><path d="M478.1 346a6 6 0 0 1 6-6h28a6 6 0 0 1 6 6v88a6 6 0 0 1-6 6h-28a6 6 0 0 1-6-6z" stroke="#000" stroke-width="2" fill="#fff"/><path d="M687.86 348.52l.43.22.37.44.03.1 20.64.02v1.95h-21.3l-.42-.14-.35-.25-.26-.36v-.08h-3.47v-1.95h3.98zm-167.76 1.9v-1.95h14.8v1.95z" stroke="#5e5e5e" stroke-width=".05" fill="#5e5e5e"/><path d="M520.13 350.42h-1.03v-1.95h1.03z" fill="#5e5e5e"/><path stroke="#5e5e5e" stroke-width=".05" fill="#5e5e5e"/><path d="M724.6 350.27l-14.26 4.64v-9.26z" fill="#5e5e5e"/><path d="M727.76 350.27l-18.4 5.98V344.3zm-16.44 3.3l10.13-3.3-10.13-3.3z" stroke="#5e5e5e" stroke-width=".05" fill="#5e5e5e"/><use xlink:href="#b" transform="matrix(1,0,0,1,534.8960476444987,340.03049647841084) translate(0 15.069444444444446)"/><use xlink:href="#c" transform="matrix(1,0,0,1,534.8960476444987,340.03049647841084) translate(78.24110243055556 15.069444444444446)"/><path d="M750.74 282v18.33m0 18.34V337M750.74 282.05V280" stroke="#5e5e5e" stroke-width="4" fill="none"/><path d="M752.72 339h-3.95v-2.05h3.95z" stroke="#5e5e5e" stroke-width=".05" fill="#5e5e5e"/><path d="M750.74 443v18m0 18v18" stroke="#5e5e5e" stroke-width="4" fill="none"/><path d="M752.72 443.05h-3.95V441h3.95zM752.72 499h-3.95v-2.05h3.95z" stroke="#5e5e5e" stroke-width=".05" fill="#5e5e5e"/><path d="M750.74 963v35" stroke="#5e5e5e" stroke-width="4" fill="none"/><path d="M752.72 963.05h-3.95V961h3.95z" stroke="#5e5e5e" stroke-width=".05" fill="#5e5e5e"/><path d="M750.74 997.95v2.05M750.74 803v17.22m0 17.22v34.44m0 17.23v17.23" stroke="#5e5e5e" stroke-width="4" fill="none"/><path d="M752.72 803.05h-3.95V801h3.95zM752.72 908.33h-3.95v-2.06h3.95zM833 362.9h-58.36v-1.94H833zm162.7 0h-40.87v-1.94h40.87z" stroke="#5e5e5e" stroke-width=".05" fill="#5e5e5e"/><path d="M774.66 362.9h-1.02v-1.94h1.02z" fill="#5e5e5e"/><path stroke="#5e5e5e" stroke-width=".05" fill="#5e5e5e"/><path d="M1010.96 361.93l-14.26 4.64v-9.27z" fill="#5e5e5e"/><path d="M1014.12 361.93l-18.4 5.98v-11.95zm-16.45 3.3l10.14-3.3-10.13-3.3z" stroke="#5e5e5e" stroke-width=".05" fill="#5e5e5e"/><use xlink:href="#d" transform="matrix(1,0,0,1,833.0074251068528,352.52089500705785) translate(0 15.069444444444446)"/><use xlink:href="#e" transform="matrix(1,0,0,1,833.0074251068528,352.52089500705785) translate(60.0119357638889 15.069444444444446)"/><path d="M1033.9 282v25m0 25v25M1033.9 282.05V280" stroke="#5e5e5e" stroke-width="4" fill="none"/><path d="M1035.87 359h-3.95v-2.05h3.95z" stroke="#5e5e5e" stroke-width=".05" fill="#5e5e5e"/><path d="M1033.9 443v20.56m0 20.55v41.12m0 20.56v41.1m0 20.56v41.12m0 20.55v41.12m0 20.56v41.1m0 20.56v41.12m0 20.55v41.12m0 20.56v41.1m0 20.56V998" stroke="#5e5e5e" stroke-width="4" fill="none"/><path d="M1035.87 443.05h-3.95V441h3.95z" stroke="#5e5e5e" stroke-width=".05" fill="#5e5e5e"/><path d="M1033.9 997.95v2.05" stroke="#5e5e5e" stroke-width="4" fill="none"/><path d="M1013.9 366a6 6 0 0 1 6-6h28a6 6 0 0 1 6 6v68a6 6 0 0 1-6 6h-28a6 6 0 0 1-6-6z" stroke="#000" stroke-width="2" fill="#fff"/><path d="M1585.9 282v22.5m0 22.47v44.98m0 22.48v44.98m0 22.5v44.97m0 22.5v22.47M1585.9 282.05V280" stroke="#5e5e5e" stroke-width="4" fill="none"/><path d="M1587.87 553.84h-3.95v-2.05h3.95z" stroke="#5e5e5e" stroke-width=".05" fill="#5e5e5e"/><path d="M1585.9 923v25m0 25v25" stroke="#5e5e5e" stroke-width="4" fill="none"/><path d="M1587.87 923.05h-3.95V921h3.95z" stroke="#5e5e5e" stroke-width=".05" fill="#5e5e5e"/><path d="M1585.9 997.95v2.05M1585.9 803v24.67m0 24.66V877" stroke="#5e5e5e" stroke-width="4" fill="none"/><path d="M1587.87 803.05h-3.95V801h3.95zM1587.87 879h-3.95v-2.05h3.95z" stroke="#5e5e5e" stroke-width=".05" fill="#5e5e5e"/><path d="M1309.9 240c-49.7 0-90-35.82-90-80s40.3-80 90-80 90 35.82 90 80-40.3 80-90 80z" stroke="#000" stroke-width="2" fill="#fff"/><path d="M1219.9 240h180" stroke="#000" stroke-width="2" fill="none"/><use xlink:href="#f" transform="matrix(1,0,0,1,1179.8964314419209,240) translate(27.444661458333343 21.52777777777778)"/><use xlink:href="#g" transform="matrix(1,0,0,1,1179.8964314419209,240) translate(99.86219618055556 21.52777777777778)"/><use xlink:href="#h" transform="matrix(1,0,0,1,1179.8964314419209,240) translate(132.67469618055554 21.52777777777778)"/><path d="M1313.76 1001.3h-3.95v-20h3.96zm0-39.97h-3.95v-35h3.96zm0-59.94h-3.95v-39.97h3.96zm0-59.95h-3.95V801.5h3.96zm0-59.94h-3.95v-39.95h3.96zm0-59.93h-3.95V681.6h3.96zm0-59.94h-3.95v-39.96h3.96zm0-59.94h-3.95V561.7h3.96zm0-59.96h-3.95V501.8h3.96zm0-59.94h-3.95v-39.96h3.96zm0-59.94h-3.95V381.9h3.96zm0-59.94h-3.95v-39.96h3.96zm0-59.94h-3.95V282h3.96z" stroke="#5e5e5e" stroke-width=".05" fill="#5e5e5e"/><path d="M1313.76 282.05h-3.95V280h3.96zM1313.76 1003.3h-3.95v-2.06h3.96z" stroke="#5e5e5e" stroke-width=".05" fill="#5e5e5e"/><path d="M728.85 346a6 6 0 0 1 6-6h31.8a6 6 0 0 1 6 6v88a6 6 0 0 1-6 6h-31.8a6 6 0 0 1-6-6zM1289.9 386a6 6 0 0 1 6-6h28a6 6 0 0 1 6 6v48a6 6 0 0 1-6 6h-28a6 6 0 0 1-6-6z" stroke="#000" stroke-width="2" fill="#fff"/><path d="M1270.4 384.8v1.96h-37.88v-1.95zm-214.5.24v-1.95h55.38v1.94z" stroke="#5e5e5e" stroke-width=".05" fill="#5e5e5e"/><path d="M1055.92 385.04h-1.02v-1.95h1.02z" fill="#5e5e5e"/><path stroke="#5e5e5e" stroke-width=".05" fill="#5e5e5e"/><path d="M1285.67 385.78l-14.26 4.64v-9.27z" fill="#5e5e5e"/><path d="M1288.83 385.78l-18.4 5.98V379.8zm-16.45 3.3l10.14-3.3-10.14-3.3z" stroke="#5e5e5e" stroke-width=".05" fill="#5e5e5e"/><use xlink:href="#i" transform="matrix(1,0,0,1,1111.28377551,375.5133583501375) translate(0 15.069444444444446)"/><use xlink:href="#j" transform="matrix(1,0,0,1,1111.28377551,375.5133583501375) translate(50.707465277777786 15.069444444444446)"/><path d="M1105.15 439.27h-33.23v-1.95h33.23zm184.23 0h-50.73v-1.95h50.73z" stroke="#5e5e5e" stroke-width=".05" fill="#5e5e5e"/><path d="M1290.23 438.12l.7.83.38.32h-1.95v-1.95h.4z" fill="#5e5e5e"/><path stroke="#5e5e5e" stroke-width=".05" fill="#5e5e5e"/><path d="M1070.92 442.93l-14.27-4.64 14.27-4.64z" fill="#5e5e5e"/><path d="M1071.9 444.27l-18.4-5.98 18.4-6zm-12.1-5.98l10.14 3.28V435z" stroke="#5e5e5e" stroke-width=".05" fill="#5e5e5e"/><use xlink:href="#k" transform="matrix(1,0,0,1,1105.147310670167,428.8800143948036) translate(0 15.069444444444446)"/><use xlink:href="#l" transform="matrix(1,0,0,1,1105.147310670167,428.8800143948036) translate(40.21050347222223 15.069444444444446)"/><use xlink:href="#m" transform="matrix(1,0,0,1,1105.147310670167,428.8800143948036) translate(62.966579861111114 15.069444444444446)"/><path d="M837.83 439.46l-47.36.02v-1.95l47.36-.02zm175.7-.03h-64.87v-1.95h64.86z" stroke="#5e5e5e" stroke-width=".05" fill="#5e5e5e"/><path d="M1014.23 438.12l.72.83.55.48h-2v-1.95h.34z" fill="#5e5e5e"/><path stroke="#5e5e5e" stroke-width=".05" fill="#5e5e5e"/><path d="M789.47 443.14l-14.27-4.63 14.27-4.63z" fill="#5e5e5e"/><path d="M790.45 444.5l-18.4-6 18.4-5.97zm-12.1-6l10.14 3.3v-6.6z" stroke="#5e5e5e" stroke-width=".05" fill="#5e5e5e"/><use xlink:href="#n" transform="matrix(1,0,0,1,837.82741968279,429.0705594128545) translate(0 15.069444444444446)"/><use xlink:href="#o" transform="matrix(1,0,0,1,837.82741968279,429.0705594128545) translate(52.006293402777786 15.069444444444446)"/><use xlink:href="#p" transform="matrix(1,0,0,1,837.82741968279,429.0705594128545) translate(74.52690972222223 15.069444444444446)"/><path d="M478.1 506a6 6 0 0 1 6-6h31.8a6 6 0 0 1 6 6v288a6 6 0 0 1-6 6h-31.8a6 6 0 0 1-6-6z" stroke="#000" stroke-width="2" fill="#fff"/><path d="M535.03 506.85H523.9v-1.95h11.13zm174.32 0h-24v-1.95h24z" stroke="#5e5e5e" stroke-width=".05" fill="#5e5e5e"/><path d="M523.9 506.85h-1v-.9l-.1-1.05h1.12z" fill="#5e5e5e"/><path stroke="#5e5e5e" stroke-width=".05" fill="#5e5e5e"/><path d="M724.6 505.88l-14.25 4.63v-9.26z" fill="#5e5e5e"/><path d="M727.77 505.88l-18.4 5.97V499.9zm-16.45 3.3l10.14-3.3-10.14-3.3z" stroke="#5e5e5e" stroke-width=".05" fill="#5e5e5e"/><use xlink:href="#q" transform="matrix(1,0,0,1,535.033382409923,496.4639716746059) translate(0 15.069444444444446)"/><use xlink:href="#j" transform="matrix(1,0,0,1,535.033382409923,496.4639716746059) translate(79.79058159722221 15.069444444444446)"/><path d="M728.85 506a6 6 0 0 1 6-6h31.8a6 6 0 0 1 6 6v288a6 6 0 0 1-6 6h-31.8a6 6 0 0 1-6-6z" stroke="#000" stroke-width="2" fill="#fff"/><path d="M826.3 559.98h-51.66v-1.95h51.67zm211.15-5.84l2.12 2.9.16 1h266.35l.84-2.6 2.9-2.1 2.04-.34 3.48 1.14 2.1 2.9.17 1h227.16v1.94h-228.8l-.36-2.17-1.47-2-2.43-.8-1.1.18-2.02 1.47-1.1 3.33h-269.4l-.36-2.17-1.47-2-2.43-.8-1.12.18-2 1.47-1.1 3.33h-77.1v-1.95h75.7l.83-2.58 2.9-2.12 2.04-.33z" stroke="#5e5e5e" stroke-width=".05" fill="#5e5e5e"/><path d="M774.66 559.98h-1.02v-1.95h1.02z" fill="#5e5e5e"/><path stroke="#5e5e5e" stroke-width=".05" fill="#5e5e5e"/><path d="M1560.03 559l-14.27 4.64v-9.27z" fill="#5e5e5e"/><path d="M1563.18 559l-18.4 5.98v-11.96zm-16.45 3.3l10.14-3.3-10.13-3.3z" stroke="#5e5e5e" stroke-width=".05" fill="#5e5e5e"/><use xlink:href="#r" transform="matrix(1,0,0,1,826.3068130146212,549.5897780587289) translate(0 15.069444444444446)"/><use xlink:href="#s" transform="matrix(1,0,0,1,826.3068130146212,549.5897780587289) translate(50.67708333333334 15.069444444444446)"/><path d="M1564 560.84a6 6 0 0 1 6-6h31.8a6 6 0 0 1 6 6V794a6 6 0 0 1-6 6H1570a6 6 0 0 1-6-6zM2137.9 240c-49.7 0-90-35.82-90-80s40.3-80 90-80 90 35.82 90 80-40.3 80-90 80z" stroke="#000" stroke-width="2" fill="#fff"/><path d="M2047.9 240h180" stroke="#000" stroke-width="2" fill="none"/><use xlink:href="#t" transform="matrix(1,0,0,1,2007.8964314419209,240) translate(76.56032986111111 21.52777777777778)"/><path d="M1863.87 998h-3.95v-19.15h3.95zm0-38.3h-3.95v-38.32h3.95zm0-57.48h-3.95v-38.3h3.95zm0-57.46h-3.95v-38.3h3.95zm0-57.47h-3.95v-38.32h3.95zm0-57.47h-3.95v-8.85h3.95zm0-27.67h-3.95V691.5h3.95zm0-29.8h-3.95V653.2h3.95z" stroke="#5e5e5e" stroke-width=".05" fill="#5e5e5e"/><path d="M1863.87 653.25h-3.95v-2.05h3.95z" fill="#5e5e5e"/><path stroke="#5e5e5e" stroke-width=".05" fill="#5e5e5e"/><path d="M1863.87 1000h-3.95v-2.05h3.95z" stroke="#5e5e5e" stroke-width=".05" fill="#5e5e5e"/><path d="M1861.9 282v19.02m0 19.03v38.04m0 19v38.06m0 19.02v38.05m0 19.02v38.04m0 19.02v19.02M1861.9 282.05V280" stroke="#5e5e5e" stroke-width="4" fill="none"/><path d="M1863.87 569.34h-3.95v-2.05h3.95zM1668.9 573.5h-59.1v-1.96h59.1zm152.75 0h-41.6v-1.96h41.6z" stroke="#5e5e5e" stroke-width=".05" fill="#5e5e5e"/><path d="M1609.82 573.5h-1.03v-1.96h1.02z" fill="#5e5e5e"/><path stroke="#5e5e5e" stroke-width=".05" fill="#5e5e5e"/><path d="M1836.92 572.52l-14.27 4.63v-9.27z" fill="#5e5e5e"/><path d="M1840.07 572.52l-18.4 5.97v-11.96zm-16.44 3.3l10.13-3.3-10.13-3.3z" stroke="#5e5e5e" stroke-width=".05" fill="#5e5e5e"/><use xlink:href="#u" transform="matrix(1,0,0,1,1668.904243880101,563.106017796395) translate(0 15.069444444444446)"/><use xlink:href="#v" transform="matrix(1,0,0,1,1668.904243880101,563.106017796395) translate(39.7775607638889 15.069444444444446)"/><path d="M1840 576.34a6 6 0 0 1 6-6h31.8a6 6 0 0 1 6 6v67.86a6 6 0 0 1-6 6H1846a6 6 0 0 1-6-6z" stroke="#000" stroke-width="2" fill="#fff"/><path d="M1838.42 645.6v1.95h-26.82v-1.95zm-173.22-.28v1.95h-37.9v-1.95z" stroke="#5e5e5e" stroke-width=".05" fill="#5e5e5e"/><path d="M1839.34 646.37l.42 1 .1.18h-1.46v-1.95h.75z" fill="#5e5e5e"/><path stroke="#5e5e5e" stroke-width=".05" fill="#5e5e5e"/><path d="M1626.3 650.93l-14.27-4.64 14.27-4.64z" fill="#5e5e5e"/><path d="M1627.27 652.27l-18.4-5.98 18.4-6zm-12.1-5.98l10.15 3.28V643z" stroke="#5e5e5e" stroke-width=".05" fill="#5e5e5e"/><use xlink:href="#n" transform="matrix(1,0,0,1,1665.2052663184654,637.161486545045) translate(0 15.069444444444446)"/><use xlink:href="#w" transform="matrix(1,0,0,1,1665.2052663184654,637.161486545045) translate(52.006293402777786 15.069444444444446)"/><use xlink:href="#x" transform="matrix(1,0,0,1,1665.2052663184654,637.161486545045) translate(75.03580729166667 15.069444444444446)"/><path d="M2137.9 282v20.14m0 20.15v40.27m0 20.15V423m0 20.14v40.3m0 20.13v40.3m0 20.13v40.3m0 20.13v40.3m0 20.13V705M2137.9 282.05V280" stroke="#5e5e5e" stroke-width="4" fill="none"/><path d="M2139.87 707h-3.95v-2.04h3.95z" stroke="#5e5e5e" stroke-width=".05" fill="#5e5e5e"/><path d="M2137.9 803v21.67m0 21.66v43.34m0 21.66v43.34m0 21.66V998" stroke="#5e5e5e" stroke-width="4" fill="none"/><path d="M2139.87 803.05h-3.95V801h3.95z" stroke="#5e5e5e" stroke-width=".05" fill="#5e5e5e"/><path d="M2137.9 997.95v2.05" stroke="#5e5e5e" stroke-width="4" fill="none"/><path d="M1709.43 712.55h-99.64v-1.94h99.63zm387.52 0h-82.13v-1.96h82.13z" stroke="#5e5e5e" stroke-width=".05" fill="#5e5e5e"/><path d="M1609.82 712.56h-1.03v-1.95h1.02z" fill="#5e5e5e"/><path stroke="#5e5e5e" stroke-width=".05" fill="#5e5e5e"/><path d="M2112.22 711.56l-14.27 4.64v-9.27z" fill="#5e5e5e"/><path d="M2115.37 711.56l-18.4 5.98V705.6zm-16.44 3.3l10.13-3.3-10.13-3.3z" stroke="#5e5e5e" stroke-width=".05" fill="#5e5e5e"/><use xlink:href="#y" transform="matrix(1,0,0,1,1709.4318771409562,702.162245352561) translate(0 15.069444444444446)"/><use xlink:href="#z" transform="matrix(1,0,0,1,1709.4318771409562,702.162245352561) translate(65.65538194444444 15.069444444444446)"/><use xlink:href="#A" transform="matrix(1,0,0,1,1709.4318771409562,702.162245352561) translate(146.65364583333331 15.069444444444446)"/><use xlink:href="#B" transform="matrix(1,0,0,1,1709.4318771409562,702.162245352561) translate(168.3159722222222 15.069444444444446)"/><use xlink:href="#C" transform="matrix(1,0,0,1,1709.4318771409562,702.162245352561) translate(230.8572048611111 15.069444444444446)"/><use xlink:href="#D" transform="matrix(1,0,0,1,1709.4318771409562,702.162245352561) translate(243.5720486111111 15.069444444444446)"/><path d="M2116 714a6 6 0 0 1 6-6h31.8a6 6 0 0 1 6 6v80a6 6 0 0 1-6 6H2122a6 6 0 0 1-6-6z" stroke="#000" stroke-width="2" fill="#fff"/><path d="M2413.9 803v17.9m0 17.92v35.8m0 17.92V910.48h.02v.02h.06v.02l.02.02v17.92m0 17.9v35.82m0 17.9V1018" stroke="#5e5e5e" stroke-width="4" fill="none"/><path d="M2415.87 803.05h-3.95V801h3.95z" stroke="#5e5e5e" stroke-width=".05" fill="#5e5e5e"/><path d="M2414 1017.95v2.05M2413.9 282v20.7m0 20.73v41.43m0 20.7V427m0 20.7v41.44m0 20.72v41.43m0 20.7v41.43m0 20.7v41.44m0 20.72V717M2413.9 282.05V280" stroke="#5e5e5e" stroke-width="4" fill="none"/><path d="M2415.87 719h-3.95v-2.05h3.95zM2227.34 717.15h-65.55v-1.95h65.54zm154.16 0h-48.05v-1.95h48.05z" stroke="#5e5e5e" stroke-width=".05" fill="#5e5e5e"/><path d="M2161.82 717.15h-1.03v-1.95h1.02z" fill="#5e5e5e"/><path stroke="#5e5e5e" stroke-width=".05" fill="#5e5e5e"/><path d="M2396.76 716.18l-14.26 4.63v-9.26z" fill="#5e5e5e"/><path d="M2399.92 716.18l-18.4 5.97V710.2zm-16.45 3.3l10.14-3.3-10.13-3.3z" stroke="#5e5e5e" stroke-width=".05" fill="#5e5e5e"/><use xlink:href="#E" transform="matrix(1,0,0,1,2227.3381146269535,706.7649911485124) translate(0 15.069444444444446)"/><use xlink:href="#F" transform="matrix(1,0,0,1,2227.3381146269535,706.7649911485124) translate(65.65538194444444 15.069444444444446)"/><path d="M2392 726a6 6 0 0 1 6-6h31.8a6 6 0 0 1 6 6v68a6 6 0 0 1-6 6H2398a6 6 0 0 1-6-6zM519.75 99.75c0 10.9-8.84 19.75-19.75 19.75-10.9 0-19.75-8.84-19.75-19.75C480.25 88.85 489.1 80 500 80c10.9 0 19.75 8.84 19.75 19.75z" stroke="#000" stroke-width="2" fill="#fff"/><path d="M500 119.5v49.3a20.7 20.7 0 0 0 3.2 11.07L540 238m-40-63.2L460 238m0-98.75h80" stroke="#000" stroke-width="2" fill="none"/><path d="M460 86a6 6 0 0 1 6-6h68a6 6 0 0 1 6 6v168a6 6 0 0 1-6 6h-68a6 6 0 0 1-6-6z" fill="none"/><use xlink:href="#G" transform="matrix(1,0,0,1,380,238) translate(79.34787326388889 21.52777777777778)"/><path d="M840.74 160c0 44.18-35.82 80-80 80s-80-35.82-80-80 35.82-80 80-80 80 35.82 80 80z" stroke="#000" stroke-width="2" fill="#fff"/><path d="M660.74 80v160m0-80h20" stroke="#000" stroke-width="2" fill="none"/><use xlink:href="#H" transform="matrix(1,0,0,1,640.741095722821,240) translate(14.525824652777771 21.52777777777778)"/><use xlink:href="#I" transform="matrix(1,0,0,1,640.741095722821,240) translate(127.40559895833334 21.52777777777778)"/><path d="M1123.9 160c0 44.18-40.3 80-90 80s-90-35.82-90-80 40.3-80 90-80 90 35.82 90 80z" stroke="#000" stroke-width="2" fill="#fff"/><path d="M1051.9 71l-18 9 18 10.8" stroke="#000" stroke-width="2" fill="none"/><use xlink:href="#J" transform="matrix(1,0,0,1,903.8964314419208,240) translate(11.407335069444457 21.52777777777778)"/><use xlink:href="#g" transform="matrix(1,0,0,1,903.8964314419208,240) translate(147.12782118055554 21.52777777777778)"/><use xlink:href="#K" transform="matrix(1,0,0,1,903.8964314419208,240) translate(179.94032118055554 21.52777777777778)"/><path d="M1675.9 160c0 44.18-40.3 80-90 80s-90-35.82-90-80 40.3-80 90-80 90 35.82 90 80z" stroke="#000" stroke-width="2" fill="#fff"/><path d="M1603.9 71l-18 9 18 10.8" stroke="#000" stroke-width="2" fill="none"/><use xlink:href="#L" transform="matrix(1,0,0,1,1455.8964314419209,240) translate(6.605902777777786 21.52777777777778)"/><use xlink:href="#g" transform="matrix(1,0,0,1,1455.8964314419209,240) translate(123.40277777777777 21.52777777777778)"/><use xlink:href="#M" transform="matrix(1,0,0,1,1455.8964314419209,240) translate(156.21527777777777 21.52777777777778)"/><path d="M2503.9 160c0 44.18-40.3 80-90 80s-90-35.82-90-80 40.3-80 90-80 90 35.82 90 80z" stroke="#000" stroke-width="2" fill="#fff"/><path d="M2431.9 71l-18 9 18 10.8" stroke="#000" stroke-width="2" fill="none"/><use xlink:href="#J" transform="matrix(1,0,0,1,2283.896431441921,240) translate(18.60134548611113 21.52777777777778)"/><use xlink:href="#g" transform="matrix(1,0,0,1,2283.896431441921,240) translate(154.32183159722223 21.52777777777778)"/><use xlink:href="#N" transform="matrix(1,0,0,1,2283.896431441921,240) translate(187.13433159722223 21.52777777777778)"/><path d="M2226.5 794.9h-47.2v-1.94h47.2zm163.5-.5h-64.7v-1.96h64.7z" stroke="#5e5e5e" stroke-width=".05" fill="#5e5e5e"/><path d="M2391 794.04l.03.35h-1.06v-1.96h1.03z" fill="#5e5e5e"/><path stroke="#5e5e5e" stroke-width=".05" fill="#5e5e5e"/><path d="M2178.3 798.57l-14.27-4.63 14.26-4.64z" fill="#5e5e5e"/><path d="M2179.27 799.92l-18.4-5.98 18.4-5.98zm-12.1-5.98l10.15 3.3v-6.6z" stroke="#5e5e5e" stroke-width=".05" fill="#5e5e5e"/><g><use xlink:href="#O" transform="matrix(1,0,0,1,2226.487843875654,784.2639150007411) translate(0 15.069444444444446)"/></g><path d="M1862.4 795.9l.08.1h98.35v1.95h-99.32l-.07-.1-234.75-.04v-1.94zm252.27.1v1.95h-77.56V796z" stroke="#5e5e5e" stroke-width=".05" fill="#5e5e5e"/><path d="M2115.34 796.16l.42 1.02.47.77h-1.58V796h.65z" fill="#5e5e5e"/><path stroke="#5e5e5e" stroke-width=".05" fill="#5e5e5e"/><path d="M1625.68 801.47l-14.27-4.64 14.28-4.63z" fill="#5e5e5e"/><path d="M1626.65 802.8l-18.4-5.97 18.4-5.98zm-12.08-5.97l10.13 3.3v-6.6z" stroke="#5e5e5e" stroke-width=".05" fill="#5e5e5e"/><g><use xlink:href="#P" transform="matrix(1,0,0,1,1960.8293440590894,787.5606556983937) translate(0 15.069444444444446)"/></g><path d="M1313.75 791.1l2.9 2.12.84 2.57h29.73v1.95h-31.15l-1.1-3.33-2-1.47-1.12-.18-2.43.8-1.47 2-.35 2.17h-269.4l-1.1-3.32-2-1.47-1.13-.18-2.42.8-1.47 2-.35 2.17H791.55v-1.95h236.52l.16-1 2.1-2.9 3.5-1.13 2.03.33 2.9 2.12.84 2.57h266.35l.16-1 2.13-2.9 3.47-1.13zm248.84 4.7v1.95h-26.15v-1.96z" stroke="#5e5e5e" stroke-width=".05" fill="#5e5e5e"/><path d="M1563.34 796.16l.42 1.02.35.57h-1.53v-1.96h.68z" fill="#5e5e5e"/><path stroke="#5e5e5e" stroke-width=".05" fill="#5e5e5e"/><path d="M790.55 801.4l-14.27-4.63 14.27-4.63z" fill="#5e5e5e"/><path d="M791.52 802.75l-18.4-5.98 18.4-5.98zm-12.08-5.98l10.13 3.3v-6.6z" stroke="#5e5e5e" stroke-width=".05" fill="#5e5e5e"/><g><use xlink:href="#Q" transform="matrix(1,0,0,1,1347.22829658512,786.0147778676088) translate(0 17.22222222222222)"/><use xlink:href="#R" transform="matrix(1,0,0,1,1347.22829658512,786.0147778676088) translate(91.3888888888889 17.22222222222222)"/><use xlink:href="#S" transform="matrix(1,0,0,1,1347.22829658512,786.0147778676088) translate(107.66493055555557 17.22222222222222)"/></g><path d="M1565.9 886a6 6 0 0 1 6-6h28a6 6 0 0 1 6 6v28a6 6 0 0 1-6 6h-28a6 6 0 0 1-6-6z" stroke="#000" stroke-width="2" fill="#fff"/><path d="M1564.47 915.76v1.95h-14.13v-1.94zm-528.6-5.87l2.9 2.1.83 2.6h260.04v1.94H1038.2l-1.1-3.33-2-1.46-1.13-.17-2.42.8-1.47 2-.35 2.17h-232.4v-1.95h230.74l.16-1 2.1-2.9 3.5-1.13z" stroke="#5e5e5e" stroke-width=".05" fill="#5e5e5e"/><path d="M1565.24 916.16l.42 1.02.32.53h-1.53v-1.94h.7z" fill="#5e5e5e"/><path stroke="#5e5e5e" stroke-width=".05" fill="#5e5e5e"/><path d="M797.77 920.18l-14.54-3.66 13.92-5.6z" fill="#5e5e5e"/><path d="M798.84 921.46l-18.76-4.73 17.95-7.2zm-12.46-5.16l10.33 2.6-.43-6.56z" stroke="#5e5e5e" stroke-width=".05" fill="#5e5e5e"/><g><use xlink:href="#T" transform="matrix(1,0,0,1,1299.6435800051106,904.8100369259527) translate(0 17.22222222222222)"/><use xlink:href="#U" transform="matrix(1,0,0,1,1299.6435800051106,904.8100369259527) translate(88.99305555555556 17.22222222222222)"/><use xlink:href="#V" transform="matrix(1,0,0,1,1299.6435800051106,904.8100369259527) translate(135.01736111111111 17.22222222222222)"/><use xlink:href="#W" transform="matrix(1,0,0,1,1299.6435800051106,904.8100369259527) translate(174.91319444444446 17.22222222222222)"/></g><path d="M728.85 915.33a6 6 0 0 1 6-6h28a6 6 0 0 1 6 6V954a6 6 0 0 1-6 6h-28a6 6 0 0 1-6-6z" stroke="#000" stroke-width="2" fill="#fff"/><defs><path d="M180 0v-1490h901v168H370v510h643v168H370V0H180" id="X"/><path d="M628 24c-324 0-524-230-524-574 0-343 198-582 503-582 237 0 487 146 487 559v75H286c9 234 145 362 343 362 132 0 231-58 273-172l174 48C1024-91 857 24 628 24zM287-650h624c-17-190-120-322-304-322-192 0-309 151-320 322" id="Y"/><path d="M577 24c-279 0-473-224-473-580 0-354 195-576 474-576 218 0 287 134 324 193h14v-551h180V0H922v-173h-20C865-111 790 24 577 24zm27-161c203 0 314-172 314-421 0-247-108-413-314-413-212 0-317 181-317 413 0 235 108 421 317 421" id="Z"/><path d="M677 24c-213 0-288-135-325-197h-20V0H158v-1490h180v551h14c37-59 106-193 324-193 279 0 474 222 474 576 0 356-194 580-473 580zm-27-161c209 0 317-186 317-421 0-232-105-413-317-413-206 0-314 166-314 413 0 249 111 421 314 421" id="aa"/><path d="M471 26C259 26 90-98 90-318c0-256 228-303 435-329 202-27 287-16 287-108 0-139-79-219-234-219-161 0-248 86-283 164l-173-57c86-203 278-265 451-265 150 0 419 46 419 395V0H815v-152h-12C765-73 660 26 471 26zm31-159c199 0 310-134 310-271v-155c-30 35-226 55-295 64-131 17-246 59-246 186 0 116 97 176 231 176" id="ab"/><path d="M613 24c-304 0-509-231-509-576 0-350 205-580 509-580 216 0 392 114 453 309l-173 49c-33-115-133-197-280-197-223 0-326 196-326 419 0 220 103 415 326 415 150 0 252-85 285-206l172 49C1010-95 832 24 613 24" id="ac"/><path d="M158 0v-1490h180v865h22l478-493h223L593-638 1096 0H865L456-523 338-412V0H158" id="ad"/><g id="a"><use transform="matrix(0.010850694444444444,0,0,0.010850694444444444,0,0)" xlink:href="#X"/><use transform="matrix(0.010850694444444444,0,0,0.010850694444444444,12.239583333333332,0)" xlink:href="#Y"/><use transform="matrix(0.010850694444444444,0,0,0.010850694444444444,25.1953125,0)" xlink:href="#Y"/><use transform="matrix(0.010850694444444444,0,0,0.010850694444444444,38.151041666666664,0)" xlink:href="#Z"/><use transform="matrix(0.010850694444444444,0,0,0.010850694444444444,51.7578125,0)" xlink:href="#aa"/><use transform="matrix(0.010850694444444444,0,0,0.010850694444444444,65.58159722222221,0)" xlink:href="#ab"/><use transform="matrix(0.010850694444444444,0,0,0.010850694444444444,78.05989583333333,0)" xlink:href="#ac"/><use transform="matrix(0.010850694444444444,0,0,0.010850694444444444,90.75520833333333,0)" xlink:href="#ad"/></g><path fill="#333" d="M681 22C323 22 94-145 85-462h297c10 151 131 226 296 226 163 0 271-77 271-190 0-102-95-149-257-189l-164-41c-252-61-403-188-403-405 0-269 236-449 560-449 330 0 546 183 551 445H941c-11-119-106-188-259-188-156 0-244 72-244 172-3 156 226 185 373 221 250 61 445 186 445 436 0 271-213 446-575 446" id="ae"/><path fill="#333" d="M633 22C291 22 81-200 81-553c0-345 210-579 537-579 292 0 525 185 525 567v84H378c7 183 109 277 260 277 105 0 184-46 216-132l272 51C1071-99 893 22 633 22zM380-669h474c-15-146-94-237-233-237-143 0-229 99-241 237" id="af"/><path fill="#333" d="M428-1490V0H128v-1490h300" id="ag"/><path fill="#333" d="M628 22C291 22 81-210 81-554c0-346 210-578 547-578 265 0 455 142 497 372l-279 52c-25-116-99-188-215-188-160 0-244 139-244 341 0 200 84 341 244 341 116 0 193-74 217-195l279 51C1085-123 896 22 628 22" id="ah"/><path fill="#333" d="M128 0v-1118h300V0H128zm150-1264c-91 0-165-68-165-154 0-85 74-154 165-154 90 0 165 69 165 154 0 86-75 154-165 154" id="ai"/><path fill="#333" d="M628 22C291 22 81-210 81-554c0-346 210-578 547-578 336 0 547 232 547 578 0 344-211 576-547 576zm0-236c160 0 242-146 242-341 0-197-82-341-242-341S387-753 387-555c0 195 81 341 241 341" id="aj"/><path fill="#333" d="M428-647V0H128v-1118h283l4 231c63-156 176-245 348-245 232 0 384 159 384 421V0H847v-659c0-139-76-222-202-222-128 0-217 86-217 234" id="ak"/><path fill="#333" d="M440 22C227 22 68-92 68-313c0-250 202-322 422-343 195-21 271-24 271-105 0-95-63-149-175-149-116 0-187 57-211 129l-275-46c57-194 237-305 487-305 240 0 474 108 474 379V0H777v-155h-10C713-51 605 22 440 22zm85-211c140 0 238-93 238-211v-121c-37 26-156 42-222 51-111 16-185 59-185 149 0 87 70 132 169 132" id="al"/><g id="b"><use transform="matrix(0.007595486111111112,0,0,0.007595486111111112,0,0)" xlink:href="#ae"/><use transform="matrix(0.007595486111111112,0,0,0.007595486111111112,10.185546875000002,0)" xlink:href="#af"/><use transform="matrix(0.007595486111111112,0,0,0.007595486111111112,19.452039930555557,0)" xlink:href="#ag"/><use transform="matrix(0.007595486111111112,0,0,0.007595486111111112,23.667534722222225,0)" xlink:href="#af"/><use transform="matrix(0.007595486111111112,0,0,0.007595486111111112,32.934027777777786,0)" xlink:href="#ah"/><use transform="matrix(0.007595486111111112,0,0,0.007595486111111112,42.08658854166667,0)" xlink:href="#ai"/><use transform="matrix(0.007595486111111112,0,0,0.007595486111111112,46.302083333333336,0)" xlink:href="#aj"/><use transform="matrix(0.007595486111111112,0,0,0.007595486111111112,55.84201388888889,0)" xlink:href="#ak"/><use transform="matrix(0.007595486111111112,0,0,0.007595486111111112,65.52625868055556,0)" xlink:href="#al"/></g><path fill="#333" d="M683-1118v229H474v562c0 71 29 104 102 104 23 0 73-7 95-13l43 225C647 9 580 16 520 16 296 16 174-96 174-301v-588H20v-229h154v-266h300v266h209" id="am"/><path fill="#333" d="M443 0L31-1118h319c90 293 199 572 268 885 66-313 175-593 264-885h315L784 0H443" id="an"/><path fill="#333" d="M537 19C279 19 81-185 81-557c0-382 206-575 454-575 190 0 278 113 318 202h10v-560h300V0H868v-179h-15C812-89 719 19 537 19zm92-241c153 0 240-134 240-336 0-203-86-334-240-334-158 0-240 138-240 334 0 197 84 336 240 336" id="ao"/><g id="c"><use transform="matrix(0.007595486111111112,0,0,0.007595486111111112,0,0)" xlink:href="#al"/><use transform="matrix(0.007595486111111112,0,0,0.007595486111111112,9.031032986111112,0)" xlink:href="#am"/><use transform="matrix(0.007595486111111112,0,0,0.007595486111111112,14.727647569444446,0)" xlink:href="#ai"/><use transform="matrix(0.007595486111111112,0,0,0.007595486111111112,18.943142361111114,0)" xlink:href="#an"/><use transform="matrix(0.007595486111111112,0,0,0.007595486111111112,28.270399305555557,0)" xlink:href="#ai"/><use transform="matrix(0.007595486111111112,0,0,0.007595486111111112,32.48589409722222,0)" xlink:href="#ao"/><use transform="matrix(0.007595486111111112,0,0,0.007595486111111112,42.291666666666664,0)" xlink:href="#al"/><use transform="matrix(0.007595486111111112,0,0,0.007595486111111112,51.32269965277778,0)" xlink:href="#ao"/><use transform="matrix(0.007595486111111112,0,0,0.007595486111111112,61.12847222222222,0)" xlink:href="#af"/></g><g id="d"><use transform="matrix(0.007595486111111112,0,0,0.007595486111111112,0,0)" xlink:href="#ae"/><use transform="matrix(0.007595486111111112,0,0,0.007595486111111112,10.185546875000002,0)" xlink:href="#aj"/><use transform="matrix(0.007595486111111112,0,0,0.007595486111111112,19.725477430555557,0)" xlink:href="#ag"/><use transform="matrix(0.007595486111111112,0,0,0.007595486111111112,23.940972222222225,0)" xlink:href="#ai"/><use transform="matrix(0.007595486111111112,0,0,0.007595486111111112,28.156467013888893,0)" xlink:href="#ah"/><use transform="matrix(0.007595486111111112,0,0,0.007595486111111112,37.309027777777786,0)" xlink:href="#ai"/><use transform="matrix(0.007595486111111112,0,0,0.007595486111111112,41.52452256944445,0)" xlink:href="#am"/><use transform="matrix(0.007595486111111112,0,0,0.007595486111111112,47.2970920138889,0)" xlink:href="#al"/></g><path fill="#333" d="M1163 418H863v-597h-10C812-89 719 19 537 19 279 19 81-185 81-557c0-382 206-575 454-575 190 0 278 113 318 202h15v-188h295V418zM629-222c153 0 240-134 240-336 0-203-86-334-240-334-158 0-240 138-240 334 0 197 84 336 240 336" id="ap"/><path fill="#333" d="M513 14c-232 0-385-159-385-421v-711h300v659c0 139 76 222 202 222 127 0 217-86 217-234v-647h301V0H864l-4-232C797-74 683 14 513 14" id="aq"/><path fill="#333" d="M572 22C302 22 117-98 78-306l279-48c29 105 101 156 224 156 114 0 185-48 185-115 0-118-228-130-337-155-215-49-322-150-322-317 0-215 187-347 470-347 265 0 424 116 466 298l-266 47c-24-76-87-130-196-130-98 0-174 46-174 113 0 56 38 95 144 117l201 40c216 44 320 143 320 302 0 220-207 367-500 367" id="ar"/><path fill="#333" d="M440 22C227 22 68-92 68-313c0-250 202-322 422-343 195-21 271-24 271-105 0-95-63-149-175-149-116 0-187 57-211 129l-275-46c57-194 237-305 487-305 240 0 474 108 474 379V0H777v-155h-10C713-51 605 22 440 22zm290-1304c-128 0-195-103-258-103-42 0-63 39-65 97H242c4-169 84-265 208-265 129 0 189 103 257 103 45 0 63-33 68-97h162c-3 169-89 265-207 265zM525-189c140 0 238-93 238-211v-121c-37 26-156 42-222 51-111 16-185 59-185 149 0 87 70 132 169 132" id="as"/><g id="e"><use transform="matrix(0.007595486111111112,0,0,0.007595486111111112,0,0)" xlink:href="#ap"/><use transform="matrix(0.007595486111111112,0,0,0.007595486111111112,9.805772569444445,0)" xlink:href="#aq"/><use transform="matrix(0.007595486111111112,0,0,0.007595486111111112,19.490017361111114,0)" xlink:href="#af"/><use transform="matrix(0.007595486111111112,0,0,0.007595486111111112,28.75651041666667,0)" xlink:href="#ar"/><use transform="matrix(0.007595486111111112,0,0,0.007595486111111112,37.468532986111114,0)" xlink:href="#am"/><use transform="matrix(0.007595486111111112,0,0,0.007595486111111112,43.241102430555564,0)" xlink:href="#as"/><use transform="matrix(0.007595486111111112,0,0,0.007595486111111112,52.27213541666668,0)" xlink:href="#aj"/></g><path d="M180 0v-1490h528c311 0 458 177 458 395 0 191-114 278-244 313v14c139 9 302 137 302 371 0 225-148 397-499 397H180zm190-168h350c232 0 321-102 321-231 0-149-120-277-311-277H370v508zm0-668h328c160 0 286-101 286-255 0-129-87-231-280-231H370v486" id="at"/><path d="M338-670V0H158v-1118h173l1 207c72-158 192-221 342-221 226 0 378 139 378 422V0H872v-695c0-172-96-275-252-275-161 0-282 109-282 300" id="au"/><path d="M613 24c-304 0-509-231-509-576 0-350 205-580 509-580 305 0 511 230 511 580 0 345-206 576-511 576zm0-161c226 0 329-195 329-415 0-222-103-419-329-419-223 0-326 196-326 419 0 220 103 415 326 415" id="av"/><g id="f"><use transform="matrix(0.010850694444444444,0,0,0.010850694444444444,0,0)" xlink:href="#at"/><use transform="matrix(0.010850694444444444,0,0,0.010850694444444444,14.539930555555555,0)" xlink:href="#ab"/><use transform="matrix(0.010850694444444444,0,0,0.010850694444444444,27.018229166666664,0)" xlink:href="#au"/><use transform="matrix(0.010850694444444444,0,0,0.010850694444444444,40.14756944444444,0)" xlink:href="#ac"/><use transform="matrix(0.010850694444444444,0,0,0.010850694444444444,52.84288194444444,0)" xlink:href="#av"/></g><g id="g"><use transform="matrix(0.010850694444444444,0,0,0.010850694444444444,0,0)" xlink:href="#Z"/><use transform="matrix(0.010850694444444444,0,0,0.010850694444444444,13.606770833333332,0)" xlink:href="#Y"/></g><path d="M784 20c-382 0-662-292-662-764 0-473 280-766 662-766s660 293 660 766c0 282-99 499-260 629l192 255h-198L1049-33C969 2 880 20 784 20zm-62-486h198l156 205c112-98 183-261 183-483 0-383-209-590-475-590-268 0-477 208-477 590 0 380 209 588 477 588 54 0 106-9 154-25" id="aw"/><path d="M537 14c-226 0-379-139-379-422v-710h180v695c0 172 97 275 253 275 160 0 281-109 281-300v-670h181V0H879v-209C806-46 684 14 537 14" id="ax"/><path d="M538 24C308 24 148-78 108-271l171-41c32 123 123 178 257 178 156 0 256-77 256-169 0-77-54-128-164-154l-186-44c-203-48-300-148-300-305 0-192 176-326 414-326 230 0 351 112 402 269l-163 42c-31-80-94-158-238-158-133 0-233 69-233 162 0 83 57 129 188 160l169 40c203 48 298 149 298 302 0 196-179 339-441 339" id="ay"/><path d="M598-1118v154H368v674c0 100 37 144 132 144 23 0 62-6 92-12L629-6c-37 13-88 20-134 20-193 0-307-107-307-290v-688H20v-154h168v-266h180v266h230" id="az"/><path d="M613 24c-304 0-509-231-509-576 0-350 205-580 509-580 305 0 511 230 511 580 0 345-206 576-511 576zm0-161c226 0 329-195 329-415 0-222-103-419-329-419-223 0-326 196-326 419 0 220 103 415 326 415zm131-1176c-99 0-192-83-243-83-35 0-51 40-53 79H322c4-120 55-208 162-208 104 0 174 85 241 85 33 0 49-23 56-81h123c-4 126-62 208-160 208" id="aA"/><g id="h"><use transform="matrix(0.010850694444444444,0,0,0.010850694444444444,0,0)" xlink:href="#aw"/><use transform="matrix(0.010850694444444444,0,0,0.010850694444444444,16.9921875,0)" xlink:href="#ax"/><use transform="matrix(0.010850694444444444,0,0,0.010850694444444444,30.13237847222222,0)" xlink:href="#Y"/><use transform="matrix(0.010850694444444444,0,0,0.010850694444444444,43.088107638888886,0)" xlink:href="#ay"/><use transform="matrix(0.010850694444444444,0,0,0.010850694444444444,54.81770833333333,0)" xlink:href="#az"/><use transform="matrix(0.010850694444444444,0,0,0.010850694444444444,61.87065972222222,0)" xlink:href="#aA"/><use transform="matrix(0.010850694444444444,0,0,0.010850694444444444,75.1953125,0)" xlink:href="#Y"/><use transform="matrix(0.010850694444444444,0,0,0.010850694444444444,88.15104166666667,0)" xlink:href="#ay"/></g><path fill="#333" d="M135 0v-1490h591c327 0 492 160 492 383 0 177-115 286-268 320v15c168 8 326 140 326 361 0 236-176 411-512 411H135zm305-251h264c179 0 258-76 258-189 0-125-97-215-250-215H440v404zm0-613h241c131 0 228-74 228-194 0-109-79-183-222-183H440v377" id="aB"/><g id="i"><use transform="matrix(0.007595486111111112,0,0,0.007595486111111112,0,0)" xlink:href="#aB"/><use transform="matrix(0.007595486111111112,0,0,0.007595486111111112,10.291883680555557,0)" xlink:href="#aq"/><use transform="matrix(0.007595486111111112,0,0,0.007595486111111112,19.976128472222225,0)" xlink:href="#ar"/><use transform="matrix(0.007595486111111112,0,0,0.007595486111111112,28.68815104166667,0)" xlink:href="#ah"/><use transform="matrix(0.007595486111111112,0,0,0.007595486111111112,37.992621527777786,0)" xlink:href="#al"/></g><path fill="#333" d="M628 22C291 22 81-210 81-554c0-346 210-578 547-578 336 0 547 232 547 578 0 344-211 576-547 576zm0-236c160 0 242-146 242-341 0-197-82-341-242-341S387-753 387-555c0 195 81 341 241 341zm140-1068c-128 0-194-103-258-103-41 0-63 39-65 97H280c4-169 85-265 208-265 129 0 189 103 257 103 45 0 64-33 68-97h162c-3 169-89 265-207 265" id="aC"/><g id="j"><use transform="matrix(0.007595486111111112,0,0,0.007595486111111112,0,0)" xlink:href="#ap"/><use transform="matrix(0.007595486111111112,0,0,0.007595486111111112,9.805772569444445,0)" xlink:href="#aq"/><use transform="matrix(0.007595486111111112,0,0,0.007595486111111112,19.490017361111114,0)" xlink:href="#af"/><use transform="matrix(0.007595486111111112,0,0,0.007595486111111112,28.75651041666667,0)" xlink:href="#ar"/><use transform="matrix(0.007595486111111112,0,0,0.007595486111111112,37.468532986111114,0)" xlink:href="#am"/><use transform="matrix(0.007595486111111112,0,0,0.007595486111111112,43.01323784722223,0)" xlink:href="#aC"/><use transform="matrix(0.007595486111111112,0,0,0.007595486111111112,52.553168402777786,0)" xlink:href="#af"/><use transform="matrix(0.007595486111111112,0,0,0.007595486111111112,61.81966145833334,0)" xlink:href="#ar"/></g><path fill="#333" d="M135 0v-1490h305v1237h643V0H135" id="aD"/><g id="k"><use transform="matrix(0.007595486111111112,0,0,0.007595486111111112,0,0)" xlink:href="#aD"/><use transform="matrix(0.007595486111111112,0,0,0.007595486111111112,8.795572916666668,0)" xlink:href="#ai"/><use transform="matrix(0.007595486111111112,0,0,0.007595486111111112,13.011067708333336,0)" xlink:href="#ar"/><use transform="matrix(0.007595486111111112,0,0,0.007595486111111112,21.72309027777778,0)" xlink:href="#am"/><use transform="matrix(0.007595486111111112,0,0,0.007595486111111112,27.49565972222222,0)" xlink:href="#al"/></g><g id="l"><use transform="matrix(0.007595486111111112,0,0,0.007595486111111112,0,0)" xlink:href="#ao"/><use transform="matrix(0.007595486111111112,0,0,0.007595486111111112,9.805772569444445,0)" xlink:href="#af"/></g><g id="m"><use transform="matrix(0.007595486111111112,0,0,0.007595486111111112,0,0)" xlink:href="#ap"/><use transform="matrix(0.007595486111111112,0,0,0.007595486111111112,9.805772569444445,0)" xlink:href="#aq"/><use transform="matrix(0.007595486111111112,0,0,0.007595486111111112,19.490017361111114,0)" xlink:href="#af"/><use transform="matrix(0.007595486111111112,0,0,0.007595486111111112,28.75651041666667,0)" xlink:href="#ar"/><use transform="matrix(0.007595486111111112,0,0,0.007595486111111112,37.468532986111114,0)" xlink:href="#am"/><use transform="matrix(0.007595486111111112,0,0,0.007595486111111112,43.01323784722223,0)" xlink:href="#aC"/><use transform="matrix(0.007595486111111112,0,0,0.007595486111111112,52.553168402777786,0)" xlink:href="#af"/><use transform="matrix(0.007595486111111112,0,0,0.007595486111111112,61.81966145833334,0)" xlink:href="#ar"/></g><path fill="#333" d="M659 0H135v-1490h529c448 0 721 280 721 744 0 466-273 746-726 746zM440-263h204c287 0 437-148 437-483 0-333-150-481-435-481H440v964" id="aE"/><g id="n"><use transform="matrix(0.007595486111111112,0,0,0.007595486111111112,0,0)" xlink:href="#aE"/><use transform="matrix(0.007595486111111112,0,0,0.007595486111111112,11.233723958333334,0)" xlink:href="#al"/><use transform="matrix(0.007595486111111112,0,0,0.007595486111111112,20.264756944444446,0)" xlink:href="#ao"/><use transform="matrix(0.007595486111111112,0,0,0.007595486111111112,30.070529513888893,0)" xlink:href="#aj"/><use transform="matrix(0.007595486111111112,0,0,0.007595486111111112,39.61046006944445,0)" xlink:href="#ar"/></g><g id="o"><use transform="matrix(0.007595486111111112,0,0,0.007595486111111112,0,0)" xlink:href="#ao"/><use transform="matrix(0.007595486111111112,0,0,0.007595486111111112,9.805772569444445,0)" xlink:href="#al"/></g><path fill="#333" d="M499 418V299c80-5 216 24 216-62 0-44-25-60-89-60h-91l26-158C264-10 81-233 81-554c0-346 210-578 547-578 265 0 455 142 497 372l-279 52c-25-116-99-188-215-188-160 0-244 139-244 341 0 200 84 341 244 341 116 0 193-74 217-195l279 51C1088-140 923 0 685 20l-4 68c126-6 197 51 197 157 0 123-72 173-239 173H499" id="aF"/><g id="p"><use transform="matrix(0.007595486111111112,0,0,0.007595486111111112,0,0)" xlink:href="#ag"/><use transform="matrix(0.007595486111111112,0,0,0.007595486111111112,4.215494791666667,0)" xlink:href="#ai"/><use transform="matrix(0.007595486111111112,0,0,0.007595486111111112,8.430989583333334,0)" xlink:href="#aF"/><use transform="matrix(0.007595486111111112,0,0,0.007595486111111112,17.735460069444443,0)" xlink:href="#as"/><use transform="matrix(0.007595486111111112,0,0,0.007595486111111112,26.766493055555557,0)" xlink:href="#aj"/></g><path fill="#333" d="M135 0v-1490h581c339 0 533 192 533 485 0 204-94 351-264 424L1302 0H964L680-532H440V0H135zm305-779h220c186 0 274-77 274-226 0-150-88-233-275-233H440v459" id="aG"/><path fill="#333" d="M128 418v-1536h295v188h14c41-89 129-202 319-202 248 0 453 193 453 575 0 372-197 576-455 576-183 0-275-108-317-198h-9v597H128zm534-640c156 0 240-139 240-336 0-196-83-334-240-334-154 0-241 131-241 334 0 202 88 336 241 336" id="aH"/><g id="q"><use transform="matrix(0.007595486111111112,0,0,0.007595486111111112,0,0)" xlink:href="#aG"/><use transform="matrix(0.007595486111111112,0,0,0.007595486111111112,10.026041666666666,0)" xlink:href="#af"/><use transform="matrix(0.007595486111111112,0,0,0.007595486111111112,19.29253472222222,0)" xlink:href="#ar"/><use transform="matrix(0.007595486111111112,0,0,0.007595486111111112,28.004557291666664,0)" xlink:href="#aH"/><use transform="matrix(0.007595486111111112,0,0,0.007595486111111112,37.81032986111111,0)" xlink:href="#aj"/><use transform="matrix(0.007595486111111112,0,0,0.007595486111111112,47.350260416666664,0)" xlink:href="#ak"/><use transform="matrix(0.007595486111111112,0,0,0.007595486111111112,57.03450520833333,0)" xlink:href="#ao"/><use transform="matrix(0.007595486111111112,0,0,0.007595486111111112,66.84027777777777,0)" xlink:href="#af"/></g><path fill="#333" d="M571 0L49-1490h339c138 427 271 775 384 1244 111-471 237-815 371-1244h337L970 0H571" id="aI"/><g id="r"><use transform="matrix(0.007595486111111112,0,0,0.007595486111111112,0,0)" xlink:href="#aI"/><use transform="matrix(0.007595486111111112,0,0,0.007595486111111112,10.694444444444445,0)" xlink:href="#al"/><use transform="matrix(0.007595486111111112,0,0,0.007595486111111112,19.725477430555557,0)" xlink:href="#ag"/><use transform="matrix(0.007595486111111112,0,0,0.007595486111111112,23.940972222222225,0)" xlink:href="#ai"/><use transform="matrix(0.007595486111111112,0,0,0.007595486111111112,28.156467013888893,0)" xlink:href="#ao"/><use transform="matrix(0.007595486111111112,0,0,0.007595486111111112,37.962239583333336,0)" xlink:href="#al"/></g><path fill="#333" d="M128 0v-1118h290v195h12c54-169 184-238 367-200v268c-27-8-86-15-130-15-138 0-239 95-239 234V0H128" id="aJ"/><g id="s"><use transform="matrix(0.007595486111111112,0,0,0.007595486111111112,0,0)" xlink:href="#aJ"/><use transform="matrix(0.007595486111111112,0,0,0.007595486111111112,5.954861111111112,0)" xlink:href="#af"/><use transform="matrix(0.007595486111111112,0,0,0.007595486111111112,15.221354166666668,0)" xlink:href="#ar"/><use transform="matrix(0.007595486111111112,0,0,0.007595486111111112,23.933376736111114,0)" xlink:href="#aH"/><use transform="matrix(0.007595486111111112,0,0,0.007595486111111112,33.73914930555556,0)" xlink:href="#aj"/><use transform="matrix(0.007595486111111112,0,0,0.007595486111111112,43.279079861111114,0)" xlink:href="#ar"/><use transform="matrix(0.007595486111111112,0,0,0.007595486111111112,51.99110243055556,0)" xlink:href="#am"/><use transform="matrix(0.007595486111111112,0,0,0.007595486111111112,57.76367187500001,0)" xlink:href="#al"/><use transform="matrix(0.007595486111111112,0,0,0.007595486111111112,66.79470486111111,0)" xlink:href="#ar"/></g><path d="M180 0v-1490h510c348 0 508 209 508 474 0 266-160 477-507 477H370V0H180zm190-706h312c236 0 327-133 327-310 0-176-91-307-329-307H370v617" id="aK"/><path d="M158 0v-1118h174v172h12c41-113 157-188 290-188 26 0 70 2 91 3v181c-11-2-60-10-108-10-161 0-279 109-279 260V0H158" id="aL"/><path d="M611 442c-248 0-391-105-460-228l146-94c47 65 117 165 314 165 178 0 307-82 307-266v-224h-17C863-141 792-18 576-18c-268 0-472-195-472-546 0-346 197-568 476-568 216 0 288 133 326 193h17v-179h175V29c0 289-215 413-487 413zm-5-620c203 0 314-146 314-390 0-237-108-403-314-403-213 0-319 180-319 403 0 230 109 390 319 390" id="aM"/><g id="t"><use transform="matrix(0.010850694444444444,0,0,0.010850694444444444,0,0)" xlink:href="#aK"/><use transform="matrix(0.010850694444444444,0,0,0.010850694444444444,14.192708333333332,0)" xlink:href="#aL"/><use transform="matrix(0.010850694444444444,0,0,0.010850694444444444,22.189670138888886,0)" xlink:href="#av"/><use transform="matrix(0.010850694444444444,0,0,0.010850694444444444,35.514322916666664,0)" xlink:href="#aM"/><use transform="matrix(0.010850694444444444,0,0,0.010850694444444444,49.142795138888886,0)" xlink:href="#aL"/><use transform="matrix(0.010850694444444444,0,0,0.010850694444444444,57.139756944444436,0)" xlink:href="#Y"/><use transform="matrix(0.010850694444444444,0,0,0.010850694444444444,70.0954861111111,0)" xlink:href="#ay"/><use transform="matrix(0.010850694444444444,0,0,0.010850694444444444,81.82508680555554,0)" xlink:href="#ay"/><use transform="matrix(0.010850694444444444,0,0,0.010850694444444444,93.55468749999997,0)" xlink:href="#av"/></g><path fill="#333" d="M795 20C377 20 94-272 94-743c0-483 302-767 694-767 335 0 593 206 635 500h-310c-42-142-154-229-320-229-230 0-389 177-389 493s154 495 393 495c212 0 340-120 345-311H818v-232h620v186c0 391-269 628-643 628" id="aN"/><g id="u"><use transform="matrix(0.007595486111111112,0,0,0.007595486111111112,0,0)" xlink:href="#aN"/><use transform="matrix(0.007595486111111112,0,0,0.007595486111111112,11.674262152777779,0)" xlink:href="#af"/><use transform="matrix(0.007595486111111112,0,0,0.007595486111111112,20.940755208333336,0)" xlink:href="#aJ"/><use transform="matrix(0.007595486111111112,0,0,0.007595486111111112,27.062717013888893,0)" xlink:href="#al"/></g><path fill="#333" d="M750-1118v229H516V0H217v-889H20v-229h197v-86c0-238 156-356 363-356 94 0 178 20 215 31l-54 226c-25-7-61-15-100-15-123-3-131 84-125 200h234" id="aO"/><path fill="#333" d="M754 19C571 19 479-89 437-179h-14V0H128v-1490h300v560h9c41-89 129-202 319-202 248 0 453 193 453 575 0 372-197 576-455 576zm-92-241c156 0 240-139 240-336 0-196-83-334-240-334-154 0-241 131-241 334 0 202 88 336 241 336" id="aP"/><path fill="#333" d="M128 0v-1490h300v802h17l366-430h347L740-633 1179 0H826L514-456l-86 97V0H128" id="aQ"/><g id="v"><use transform="matrix(0.007595486111111112,0,0,0.007595486111111112,0,0)" xlink:href="#aO"/><use transform="matrix(0.007595486111111112,0,0,0.007595486111111112,5.856119791666667,0)" xlink:href="#af"/><use transform="matrix(0.007595486111111112,0,0,0.007595486111111112,15.122612847222225,0)" xlink:href="#af"/><use transform="matrix(0.007595486111111112,0,0,0.007595486111111112,24.389105902777782,0)" xlink:href="#ao"/><use transform="matrix(0.007595486111111112,0,0,0.007595486111111112,34.19487847222223,0)" xlink:href="#aP"/><use transform="matrix(0.007595486111111112,0,0,0.007595486111111112,44.15256076388889,0)" xlink:href="#al"/><use transform="matrix(0.007595486111111112,0,0,0.007595486111111112,53.18359375000001,0)" xlink:href="#ah"/><use transform="matrix(0.007595486111111112,0,0,0.007595486111111112,62.33615451388889,0)" xlink:href="#aQ"/></g><g id="w"><use transform="matrix(0.007595486111111112,0,0,0.007595486111111112,0,0)" xlink:href="#ao"/><use transform="matrix(0.007595486111111112,0,0,0.007595486111111112,9.805772569444445,0)" xlink:href="#aj"/></g><g id="x"><use transform="matrix(0.007595486111111112,0,0,0.007595486111111112,0,0)" xlink:href="#aO"/><use transform="matrix(0.007595486111111112,0,0,0.007595486111111112,5.856119791666667,0)" xlink:href="#af"/><use transform="matrix(0.007595486111111112,0,0,0.007595486111111112,15.122612847222225,0)" xlink:href="#af"/><use transform="matrix(0.007595486111111112,0,0,0.007595486111111112,24.389105902777782,0)" xlink:href="#ao"/><use transform="matrix(0.007595486111111112,0,0,0.007595486111111112,34.19487847222223,0)" xlink:href="#aP"/><use transform="matrix(0.007595486111111112,0,0,0.007595486111111112,44.15256076388889,0)" xlink:href="#al"/><use transform="matrix(0.007595486111111112,0,0,0.007595486111111112,53.18359375000001,0)" xlink:href="#ah"/><use transform="matrix(0.007595486111111112,0,0,0.007595486111111112,62.33615451388889,0)" xlink:href="#aQ"/></g><path fill="#333" d="M49 0l509-1490h400L1480 0h-339l-115-346H497L386 0H49zm524-585h374c-75-213-124-402-192-666-66 268-110 453-182 666" id="aR"/><path fill="#333" d="M120 0v-182l551-686v-8H137v-242h897v199L514-250v8h539V0H120" id="aS"/><g id="y"><use transform="matrix(0.007595486111111112,0,0,0.007595486111111112,0,0)" xlink:href="#aR"/><use transform="matrix(0.007595486111111112,0,0,0.007595486111111112,11.188151041666668,0)" xlink:href="#am"/><use transform="matrix(0.007595486111111112,0,0,0.007595486111111112,16.884765625,0)" xlink:href="#aq"/><use transform="matrix(0.007595486111111112,0,0,0.007595486111111112,26.569010416666668,0)" xlink:href="#al"/><use transform="matrix(0.007595486111111112,0,0,0.007595486111111112,35.60004340277778,0)" xlink:href="#ag"/><use transform="matrix(0.007595486111111112,0,0,0.007595486111111112,39.81553819444444,0)" xlink:href="#ai"/><use transform="matrix(0.007595486111111112,0,0,0.007595486111111112,44.03103298611111,0)" xlink:href="#aS"/><use transform="matrix(0.007595486111111112,0,0,0.007595486111111112,52.94053819444444,0)" xlink:href="#al"/></g><path fill="#333" d="M625 442c-280 0-454-114-503-274l258-72c28 63 97 128 243 128 153 0 246-69 246-216v-206h-23C805-108 717-16 536-16 284-16 81-191 81-561c0-378 208-571 456-571 188 0 280 113 321 202h13v-188h295V-9c0 303-226 451-541 451zm5-686c153 0 240-119 240-319 0-198-86-329-240-329-158 0-241 137-241 329 0 195 85 319 241 319" id="aT"/><g id="z"><use transform="matrix(0.007595486111111112,0,0,0.007595486111111112,0,0)" xlink:href="#aH"/><use transform="matrix(0.007595486111111112,0,0,0.007595486111111112,9.805772569444445,0)" xlink:href="#aJ"/><use transform="matrix(0.007595486111111112,0,0,0.007595486111111112,15.760633680555557,0)" xlink:href="#aj"/><use transform="matrix(0.007595486111111112,0,0,0.007595486111111112,25.300564236111114,0)" xlink:href="#aT"/><use transform="matrix(0.007595486111111112,0,0,0.007595486111111112,35.12912326388889,0)" xlink:href="#aJ"/><use transform="matrix(0.007595486111111112,0,0,0.007595486111111112,41.083984375,0)" xlink:href="#af"/><use transform="matrix(0.007595486111111112,0,0,0.007595486111111112,50.35047743055556,0)" xlink:href="#ar"/><use transform="matrix(0.007595486111111112,0,0,0.007595486111111112,59.0625,0)" xlink:href="#ar"/><use transform="matrix(0.007595486111111112,0,0,0.007595486111111112,67.77452256944444,0)" xlink:href="#aj"/></g><g id="A"><use transform="matrix(0.007595486111111112,0,0,0.007595486111111112,0,0)" xlink:href="#ar"/><use transform="matrix(0.007595486111111112,0,0,0.007595486111111112,8.712022569444445,0)" xlink:href="#af"/></g><g id="B"><use transform="matrix(0.007595486111111112,0,0,0.007595486111111112,0,0)" xlink:href="#al"/><use transform="matrix(0.007595486111111112,0,0,0.007595486111111112,9.031032986111112,0)" xlink:href="#ah"/><use transform="matrix(0.007595486111111112,0,0,0.007595486111111112,18.18359375,0)" xlink:href="#af"/><use transform="matrix(0.007595486111111112,0,0,0.007595486111111112,27.450086805555557,0)" xlink:href="#aJ"/><use transform="matrix(0.007595486111111112,0,0,0.007595486111111112,34.088541666666664,0)" xlink:href="#am"/><use transform="matrix(0.007595486111111112,0,0,0.007595486111111112,39.63324652777778,0)" xlink:href="#aj"/><use transform="matrix(0.007595486111111112,0,0,0.007595486111111112,49.173177083333336,0)" xlink:href="#aq"/></g><use transform="matrix(0.007595486111111112,0,0,0.007595486111111112,0,0)" xlink:href="#al" id="C"/><g id="D"><use transform="matrix(0.007595486111111112,0,0,0.007595486111111112,0,0)" xlink:href="#ap"/><use transform="matrix(0.007595486111111112,0,0,0.007595486111111112,9.805772569444445,0)" xlink:href="#aq"/><use transform="matrix(0.007595486111111112,0,0,0.007595486111111112,19.490017361111114,0)" xlink:href="#af"/><use transform="matrix(0.007595486111111112,0,0,0.007595486111111112,28.75651041666667,0)" xlink:href="#ar"/><use transform="matrix(0.007595486111111112,0,0,0.007595486111111112,37.468532986111114,0)" xlink:href="#am"/><use transform="matrix(0.007595486111111112,0,0,0.007595486111111112,43.241102430555564,0)" xlink:href="#as"/><use transform="matrix(0.007595486111111112,0,0,0.007595486111111112,52.27213541666668,0)" xlink:href="#aj"/></g><g id="E"><use transform="matrix(0.007595486111111112,0,0,0.007595486111111112,0,0)" xlink:href="#aR"/><use transform="matrix(0.007595486111111112,0,0,0.007595486111111112,11.188151041666668,0)" xlink:href="#am"/><use transform="matrix(0.007595486111111112,0,0,0.007595486111111112,16.884765625,0)" xlink:href="#aq"/><use transform="matrix(0.007595486111111112,0,0,0.007595486111111112,26.569010416666668,0)" xlink:href="#al"/><use transform="matrix(0.007595486111111112,0,0,0.007595486111111112,35.60004340277778,0)" xlink:href="#ag"/><use transform="matrix(0.007595486111111112,0,0,0.007595486111111112,39.81553819444444,0)" xlink:href="#ai"/><use transform="matrix(0.007595486111111112,0,0,0.007595486111111112,44.03103298611111,0)" xlink:href="#aS"/><use transform="matrix(0.007595486111111112,0,0,0.007595486111111112,52.94053819444444,0)" xlink:href="#al"/></g><g id="F"><use transform="matrix(0.007595486111111112,0,0,0.007595486111111112,0,0)" xlink:href="#aH"/><use transform="matrix(0.007595486111111112,0,0,0.007595486111111112,9.805772569444445,0)" xlink:href="#af"/><use transform="matrix(0.007595486111111112,0,0,0.007595486111111112,19.072265625,0)" xlink:href="#aJ"/><use transform="matrix(0.007595486111111112,0,0,0.007595486111111112,25.71072048611111,0)" xlink:href="#aO"/><use transform="matrix(0.007595486111111112,0,0,0.007595486111111112,32.03016493055556,0)" xlink:href="#ai"/><use transform="matrix(0.007595486111111112,0,0,0.007595486111111112,36.24565972222222,0)" xlink:href="#ag"/></g><path d="M763 24c-353 0-583-224-583-531v-983h190v968c0 214 149 370 393 370 243 0 391-156 391-370v-968h190v983c0 307-230 531-581 531" id="aU"/><path d="M471 26C259 26 90-98 90-318c0-256 228-303 435-329 202-27 287-16 287-108 0-139-79-219-234-219-161 0-248 86-283 164l-173-57c86-203 278-265 451-265 150 0 419 46 419 395V0H815v-152h-12C765-73 660 26 471 26zm31-159c199 0 310-134 310-271v-155c-30 35-226 55-295 64-131 17-246 59-246 186 0 116 97 176 231 176zm-23-1131l140-294h201l-194 294H479" id="aV"/><path d="M158 0v-1118h180V0H158zm91-1301c-68 0-125-53-125-119s57-119 125-119c69 0 126 53 126 119s-57 119-126 119" id="aW"/><g id="G"><use transform="matrix(0.010850694444444444,0,0,0.010850694444444444,0,0)" xlink:href="#aU"/><use transform="matrix(0.010850694444444444,0,0,0.010850694444444444,16.536458333333332,0)" xlink:href="#ay"/><use transform="matrix(0.010850694444444444,0,0,0.010850694444444444,28.266059027777775,0)" xlink:href="#ax"/><use transform="matrix(0.010850694444444444,0,0,0.010850694444444444,41.40625,0)" xlink:href="#aV"/><use transform="matrix(0.010850694444444444,0,0,0.010850694444444444,53.88454861111112,0)" xlink:href="#aL"/><use transform="matrix(0.010850694444444444,0,0,0.010850694444444444,62.59765625,0)" xlink:href="#aW"/><use transform="matrix(0.010850694444444444,0,0,0.010850694444444444,67.97960069444444,0)" xlink:href="#av"/></g><path d="M370-1490V0H180v-1490h190" id="aX"/><path d="M678-1118v154H420V0H240v-964H20v-154h220v-149c0-194 155-293 318-293 85 0 141 18 168 30l-50 154c-19-6-47-17-97-17-111 0-159 58-159 166v109h258" id="aY"/><path d="M295 13c-75 0-135-60-135-135s60-135 135-135 135 60 135 135S370 13 295 13zm0-809c-75 0-135-60-135-135s60-135 135-135 135 60 135 135-60 135-135 135" id="aZ"/><g id="H"><use transform="matrix(0.010850694444444444,0,0,0.010850694444444444,0,0)" xlink:href="#aX"/><use transform="matrix(0.010850694444444444,0,0,0.010850694444444444,5.967881944444445,0)" xlink:href="#au"/><use transform="matrix(0.010850694444444444,0,0,0.010850694444444444,19.09722222222222,0)" xlink:href="#az"/><use transform="matrix(0.010850694444444444,0,0,0.010850694444444444,26.15017361111111,0)" xlink:href="#Y"/><use transform="matrix(0.010850694444444444,0,0,0.010850694444444444,39.10590277777778,0)" xlink:href="#aL"/><use transform="matrix(0.010850694444444444,0,0,0.010850694444444444,47.819010416666664,0)" xlink:href="#aY"/><use transform="matrix(0.010850694444444444,0,0,0.010850694444444444,55.69661458333333,0)" xlink:href="#ab"/><use transform="matrix(0.010850694444444444,0,0,0.010850694444444444,68.17491319444444,0)" xlink:href="#ac"/><use transform="matrix(0.010850694444444444,0,0,0.010850694444444444,80.87022569444444,0)" xlink:href="#Y"/><use transform="matrix(0.010850694444444444,0,0,0.010850694444444444,93.82595486111111,0)" xlink:href="#aZ"/><use transform="matrix(0.010850694444444444,0,0,0.010850694444444444,100.22786458333334,0)" xlink:href="#aZ"/></g><path d="M52 0l541-1490h220L1361 0h-200l-149-416H398L254 0H52zm404-582h497c-103-290-145-390-251-756-108 377-145 460-246 756" id="ba"/><path d="M481 0L54-1118h197c107 314 236 620 325 951 87-331 217-637 324-951h197L670 0H481" id="bb"/><g id="I"><use transform="matrix(0.010850694444444444,0,0,0.010850694444444444,0,0)" xlink:href="#ba"/><use transform="matrix(0.010850694444444444,0,0,0.010850694444444444,14.898003472222221,0)" xlink:href="#az"/><use transform="matrix(0.010850694444444444,0,0,0.010850694444444444,22.16796875,0)" xlink:href="#aW"/><use transform="matrix(0.010850694444444444,0,0,0.010850694444444444,27.549913194444443,0)" xlink:href="#bb"/><use transform="matrix(0.010850694444444444,0,0,0.010850694444444444,40.0390625,0)" xlink:href="#aW"/><use transform="matrix(0.010850694444444444,0,0,0.010850694444444444,45.42100694444444,0)" xlink:href="#Z"/><use transform="matrix(0.010850694444444444,0,0,0.010850694444444444,59.02777777777778,0)" xlink:href="#ab"/><use transform="matrix(0.010850694444444444,0,0,0.010850694444444444,71.50607638888889,0)" xlink:href="#Z"/><use transform="matrix(0.010850694444444444,0,0,0.010850694444444444,85.11284722222221,0)" xlink:href="#Y"/></g><path d="M789 20c-398 0-667-293-667-764 0-473 273-766 655-766 315 0 558 198 612 487h-196c-61-191-204-311-415-311-262 0-471 207-471 590 0 380 208 588 482 588 249 0 420-165 425-427H828v-166h572v163c0 370-256 606-611 606" id="bc"/><g id="J"><use transform="matrix(0.010850694444444444,0,0,0.010850694444444444,0,0)" xlink:href="#bc"/><use transform="matrix(0.010850694444444444,0,0,0.010850694444444444,16.57986111111111,0)" xlink:href="#Y"/><use transform="matrix(0.010850694444444444,0,0,0.010850694444444444,29.535590277777775,0)" xlink:href="#aL"/><use transform="matrix(0.010850694444444444,0,0,0.010850694444444444,37.532552083333336,0)" xlink:href="#Y"/><use transform="matrix(0.010850694444444444,0,0,0.010850694444444444,50.48828125,0)" xlink:href="#au"/><use transform="matrix(0.010850694444444444,0,0,0.010850694444444444,63.61762152777778,0)" xlink:href="#ac"/><use transform="matrix(0.010850694444444444,0,0,0.010850694444444444,76.31293402777777,0)" xlink:href="#aW"/><use transform="matrix(0.010850694444444444,0,0,0.010850694444444444,81.69487847222221,0)" xlink:href="#ab"/><use transform="matrix(0.010850694444444444,0,0,0.010850694444444444,94.17317708333333,0)" xlink:href="#Z"/><use transform="matrix(0.010850694444444444,0,0,0.010850694444444444,107.77994791666666,0)" xlink:href="#av"/><use transform="matrix(0.010850694444444444,0,0,0.010850694444444444,121.10460069444441,0)" xlink:href="#aL"/></g><path d="M180 0v-1490h190v1322h690V0H180" id="bd"/><path d="M502 418V313h118c73 0 98-17 98-66s-25-65-98-65h-82l21-161C285-4 104-228 104-552c0-350 205-580 509-580 216 0 392 114 453 309l-173 49c-33-115-133-197-280-197-223 0-326 196-326 419 0 220 103 415 326 415 150 0 252-85 285-206l172 49C1015-110 859 5 663 22v64c130 5 189 54 189 162 0 118-71 170-231 170H502" id="be"/><g id="K"><use transform="matrix(0.010850694444444444,0,0,0.010850694444444444,0,0)" xlink:href="#bd"/><use transform="matrix(0.010850694444444444,0,0,0.010850694444444444,12.565104166666666,0)" xlink:href="#aW"/><use transform="matrix(0.010850694444444444,0,0,0.010850694444444444,17.94704861111111,0)" xlink:href="#be"/><use transform="matrix(0.010850694444444444,0,0,0.010850694444444444,30.64236111111111,0)" xlink:href="#aA"/><use transform="matrix(0.010850694444444444,0,0,0.010850694444444444,43.967013888888886,0)" xlink:href="#Y"/><use transform="matrix(0.010850694444444444,0,0,0.010850694444444444,56.92274305555555,0)" xlink:href="#ay"/></g><path d="M180 0v-1490h908v168H370v486h669v168H370v500h727V0H180" id="bf"/><path d="M65 0l393-574-370-544h210c88 136 192 297 267 435 67-142 176-302 264-435h206L661-564 1053 0H844c-94-144-206-310-287-458C484-308 366-142 273 0H65" id="bg"/><path d="M158 418v-1536h174v179h20c37-59 106-193 324-193 279 0 474 222 474 576 0 356-194 580-473 580-213 0-288-135-325-197h-14v591H158zm492-555c209 0 317-186 317-421 0-232-105-413-317-413-206 0-314 166-314 413 0 249 111 421 314 421" id="bh"/><path d="M338-1490V0H158v-1490h180" id="bi"/><g id="L"><use transform="matrix(0.010850694444444444,0,0,0.010850694444444444,0,0)" xlink:href="#bf"/><use transform="matrix(0.010850694444444444,0,0,0.010850694444444444,13.35720486111111,0)" xlink:href="#bg"/><use transform="matrix(0.010850694444444444,0,0,0.010850694444444444,25.48828125,0)" xlink:href="#bh"/><use transform="matrix(0.010850694444444444,0,0,0.010850694444444444,39.09505208333333,0)" xlink:href="#bi"/><use transform="matrix(0.010850694444444444,0,0,0.010850694444444444,44.47699652777778,0)" xlink:href="#aW"/><use transform="matrix(0.010850694444444444,0,0,0.010850694444444444,49.85894097222221,0)" xlink:href="#ac"/><use transform="matrix(0.010850694444444444,0,0,0.010850694444444444,62.7712673611111,0)" xlink:href="#ab"/><use transform="matrix(0.010850694444444444,0,0,0.010850694444444444,75.24956597222221,0)" xlink:href="#Z"/><use transform="matrix(0.010850694444444444,0,0,0.010850694444444444,88.85633680555554,0)" xlink:href="#av"/><use transform="matrix(0.010850694444444444,0,0,0.010850694444444444,102.18098958333331,0)" xlink:href="#aL"/></g><path d="M180 0v-1490h510c348 0 508 194 508 460 0 198-88 351-276 417L1256 0h-220L726-579c-117 2-238 0-356 1V0H180zm190-747h312c235 0 327-108 327-283 0-177-92-293-329-293H370v576" id="bj"/><g id="M"><use transform="matrix(0.010850694444444444,0,0,0.010850694444444444,0,0)" xlink:href="#bj"/><use transform="matrix(0.010850694444444444,0,0,0.010850694444444444,13.975694444444445,0)" xlink:href="#Y"/><use transform="matrix(0.010850694444444444,0,0,0.010850694444444444,26.931423611111104,0)" xlink:href="#ay"/><use transform="matrix(0.010850694444444444,0,0,0.010850694444444444,38.66102430555555,0)" xlink:href="#bh"/><use transform="matrix(0.010850694444444444,0,0,0.010850694444444444,52.267795138888886,0)" xlink:href="#av"/><use transform="matrix(0.010850694444444444,0,0,0.010850694444444444,65.59244791666666,0)" xlink:href="#ay"/><use transform="matrix(0.010850694444444444,0,0,0.010850694444444444,77.3220486111111,0)" xlink:href="#az"/><use transform="matrix(0.010850694444444444,0,0,0.010850694444444444,84.70052083333331,0)" xlink:href="#ab"/></g><g id="N"><use transform="matrix(0.010850694444444444,0,0,0.010850694444444444,0,0)" xlink:href="#bh"/><use transform="matrix(0.010850694444444444,0,0,0.010850694444444444,13.606770833333332,0)" xlink:href="#Y"/><use transform="matrix(0.010850694444444444,0,0,0.010850694444444444,26.5625,0)" xlink:href="#aL"/><use transform="matrix(0.010850694444444444,0,0,0.010850694444444444,35.275607638888886,0)" xlink:href="#aY"/><use transform="matrix(0.010850694444444444,0,0,0.010850694444444444,43.50043402777777,0)" xlink:href="#aW"/><use transform="matrix(0.010850694444444444,0,0,0.010850694444444444,48.88237847222221,0)" xlink:href="#bi"/></g><path fill="#333" d="M786 20C389 20 94-260 94-744c0-487 299-766 692-766 339 0 597 194 641 529h-309c-28-162-156-258-326-258-233 0-388 179-388 495 0 323 157 493 387 493 170 0 298-97 328-259h309c-34 277-266 530-642 530" id="bk"/><path fill="#333" d="M128 0v-1118h278l12 217c60-163 185-234 319-234 143 0 236 81 288 251 63-172 205-251 359-251 205 0 357 138 357 381V0h-301v-697c0-126-76-187-177-187-114 0-184 79-184 196V0H789v-705c0-109-72-179-174-179-106 0-187 74-187 208V0H128" id="bl"/><g id="O"><use transform="matrix(0.007595486111111112,0,0,0.007595486111111112,0,0)" xlink:href="#bk"/><use transform="matrix(0.007595486111111112,0,0,0.007595486111111112,11.507161458333334,0)" xlink:href="#aj"/><use transform="matrix(0.007595486111111112,0,0,0.007595486111111112,21.047092013888893,0)" xlink:href="#ak"/><use transform="matrix(0.007595486111111112,0,0,0.007595486111111112,30.73133680555556,0)" xlink:href="#aO"/><use transform="matrix(0.007595486111111112,0,0,0.007595486111111112,37.05078125000001,0)" xlink:href="#ai"/><use transform="matrix(0.007595486111111112,0,0,0.007595486111111112,41.26627604166667,0)" xlink:href="#aJ"/><use transform="matrix(0.007595486111111112,0,0,0.007595486111111112,47.71484375,0)" xlink:href="#bl"/><use transform="matrix(0.007595486111111112,0,0,0.007595486111111112,61.91080729166667,0)" xlink:href="#al"/><use transform="matrix(0.007595486111111112,0,0,0.007595486111111112,70.94184027777779,0)" xlink:href="#aF"/><use transform="matrix(0.007595486111111112,0,0,0.007595486111111112,80.2463107638889,0)" xlink:href="#as"/><use transform="matrix(0.007595486111111112,0,0,0.007595486111111112,89.27734375000001,0)" xlink:href="#aj"/></g><g id="P"><use transform="matrix(0.007595486111111112,0,0,0.007595486111111112,0,0)" xlink:href="#aG"/><use transform="matrix(0.007595486111111112,0,0,0.007595486111111112,10.026041666666666,0)" xlink:href="#af"/><use transform="matrix(0.007595486111111112,0,0,0.007595486111111112,19.29253472222222,0)" xlink:href="#ar"/><use transform="matrix(0.007595486111111112,0,0,0.007595486111111112,28.004557291666664,0)" xlink:href="#aq"/><use transform="matrix(0.007595486111111112,0,0,0.007595486111111112,37.68880208333333,0)" xlink:href="#ag"/><use transform="matrix(0.007595486111111112,0,0,0.007595486111111112,42.13216145833333,0)" xlink:href="#am"/><use transform="matrix(0.007595486111111112,0,0,0.007595486111111112,47.90473090277778,0)" xlink:href="#al"/><use transform="matrix(0.007595486111111112,0,0,0.007595486111111112,56.93576388888889,0)" xlink:href="#ao"/><use transform="matrix(0.007595486111111112,0,0,0.007595486111111112,66.74153645833334,0)" xlink:href="#aj"/></g><g id="Q"><use transform="matrix(0.008680555555555556,0,0,0.008680555555555556,0,0)" xlink:href="#aG"/><use transform="matrix(0.008680555555555556,0,0,0.008680555555555556,11.458333333333334,0)" xlink:href="#af"/><use transform="matrix(0.008680555555555556,0,0,0.008680555555555556,22.048611111111114,0)" xlink:href="#ar"/><use transform="matrix(0.008680555555555556,0,0,0.008680555555555556,32.005208333333336,0)" xlink:href="#aq"/><use transform="matrix(0.008680555555555556,0,0,0.008680555555555556,43.07291666666667,0)" xlink:href="#ag"/><use transform="matrix(0.008680555555555556,0,0,0.008680555555555556,48.15104166666667,0)" xlink:href="#am"/><use transform="matrix(0.008680555555555556,0,0,0.008680555555555556,54.74826388888889,0)" xlink:href="#al"/><use transform="matrix(0.008680555555555556,0,0,0.008680555555555556,65.06944444444444,0)" xlink:href="#ao"/><use transform="matrix(0.008680555555555556,0,0,0.008680555555555556,76.27604166666667,0)" xlink:href="#aj"/></g><path fill="#333" d="M568-82v-393H183v-240h385v-393h254v393h386v240H822v393H568" id="bm"/><use transform="matrix(0.008680555555555556,0,0,0.008680555555555556,0,0)" xlink:href="#bm" id="R"/><g id="S"><use transform="matrix(0.008680555555555556,0,0,0.008680555555555556,0,0)" xlink:href="#aO"/><use transform="matrix(0.008680555555555556,0,0,0.008680555555555556,6.692708333333333,0)" xlink:href="#af"/><use transform="matrix(0.008680555555555556,0,0,0.008680555555555556,17.28298611111111,0)" xlink:href="#af"/><use transform="matrix(0.008680555555555556,0,0,0.008680555555555556,27.87326388888889,0)" xlink:href="#ao"/><use transform="matrix(0.008680555555555556,0,0,0.008680555555555556,39.079861111111114,0)" xlink:href="#aP"/><use transform="matrix(0.008680555555555556,0,0,0.008680555555555556,50.46006944444445,0)" xlink:href="#al"/><use transform="matrix(0.008680555555555556,0,0,0.008680555555555556,60.78125000000001,0)" xlink:href="#ah"/><use transform="matrix(0.008680555555555556,0,0,0.008680555555555556,71.24131944444446,0)" xlink:href="#aQ"/></g><path fill="#333" d="M135 0v-1490h980v253H440v416h609v249H440V0H135" id="bn"/><g id="T"><use transform="matrix(0.008680555555555556,0,0,0.008680555555555556,0,0)" xlink:href="#bn"/><use transform="matrix(0.008680555555555556,0,0,0.008680555555555556,9.921875,0)" xlink:href="#af"/><use transform="matrix(0.008680555555555556,0,0,0.008680555555555556,20.51215277777778,0)" xlink:href="#af"/><use transform="matrix(0.008680555555555556,0,0,0.008680555555555556,31.102430555555557,0)" xlink:href="#ao"/><use transform="matrix(0.008680555555555556,0,0,0.008680555555555556,42.30902777777778,0)" xlink:href="#aP"/><use transform="matrix(0.008680555555555556,0,0,0.008680555555555556,53.689236111111114,0)" xlink:href="#al"/><use transform="matrix(0.008680555555555556,0,0,0.008680555555555556,64.01041666666667,0)" xlink:href="#ah"/><use transform="matrix(0.008680555555555556,0,0,0.008680555555555556,74.47048611111111,0)" xlink:href="#aQ"/></g><g id="U"><use transform="matrix(0.008680555555555556,0,0,0.008680555555555556,0,0)" xlink:href="#ah"/><use transform="matrix(0.008680555555555556,0,0,0.008680555555555556,10.633680555555555,0)" xlink:href="#al"/><use transform="matrix(0.008680555555555556,0,0,0.008680555555555556,20.95486111111111,0)" xlink:href="#ar"/><use transform="matrix(0.008680555555555556,0,0,0.008680555555555556,30.911458333333336,0)" xlink:href="#aj"/></g><path fill="#333" d="M127-1118h301V57c1 278-186 374-478 361V182c116 8 177-28 177-129v-1171zm151-146c-90 0-165-68-165-154 0-85 75-154 165-154s165 69 165 154c0 86-75 154-165 154" id="bo"/><g id="V"><use transform="matrix(0.008680555555555556,0,0,0.008680555555555556,0,0)" xlink:href="#ar"/><use transform="matrix(0.008680555555555556,0,0,0.008680555555555556,9.956597222222223,0)" xlink:href="#af"/><use transform="matrix(0.008680555555555556,0,0,0.008680555555555556,20.546875,0)" xlink:href="#bo"/><use transform="matrix(0.008680555555555556,0,0,0.008680555555555556,25.364583333333336,0)" xlink:href="#al"/></g><g id="W"><use transform="matrix(0.008680555555555556,0,0,0.008680555555555556,0,0)" xlink:href="#ak"/><use transform="matrix(0.008680555555555556,0,0,0.008680555555555556,11.067708333333334,0)" xlink:href="#af"/><use transform="matrix(0.008680555555555556,0,0,0.008680555555555556,21.657986111111114,0)" xlink:href="#aT"/><use transform="matrix(0.008680555555555556,0,0,0.008680555555555556,32.890625,0)" xlink:href="#al"/><use transform="matrix(0.008680555555555556,0,0,0.008680555555555556,43.21180555555556,0)" xlink:href="#am"/><use transform="matrix(0.008680555555555556,0,0,0.008680555555555556,49.72222222222222,0)" xlink:href="#ai"/><use transform="matrix(0.008680555555555556,0,0,0.008680555555555556,54.53993055555556,0)" xlink:href="#an"/><use transform="matrix(0.008680555555555556,0,0,0.008680555555555556,64.87847222222223,0)" xlink:href="#aj"/></g></defs></g></svg>