<svg xmlns="http://www.w3.org/2000/svg" xmlns:lucid="lucid" width="413" height="380"><g lucid:page-tab-id="0_0" stroke="#333" fill="none"><path d="M77.5 180.33h4.96m4.96 0h9.9m4.97 0h9.9m4.97 0h9.9m4.97 0h9.92m4.96 0h9.9m4.97 0h9.9m4.97 0h9.9m4.97 0h10.09m5.14 0h10.26m5.14 0h10.26m5.13 0h10.27m5.13 0h10.27m5.13 0h10.27m5.13 0h10.27m5.13 0h10.26m5.14 0h10.26m5.14 0h5.13M77.5 180.33H77M317.68 170.33l17.32 10-17.32 10M81.5 243h258M81.5 243H81M339.5 243h.5M81.9 115h4.95m4.94 0h9.87m4.95 0h9.88m4.94 0h9.88m4.94 0h9.9m4.93 0h9.87m4.94 0h9.9m4.94 0h9.88m4.94 0h10.09m5.15 0h10.3m5.14 0h10.3m5.15 0h10.28m5.15 0h10.3m5.14 0h10.3m5.15 0h10.3m5.14 0h10.3m5.15 0h10.3m5.15 0h5.15M99.32 125L82 115l17.32-10M339.5 115h.5"/></g></svg>